<svg width="48" height="50" viewBox="0 0 48 50" fill="none" xmlns="http://www.w3.org/2000/svg">
<g id="_&#227;&#131;&#172;&#227;&#130;&#164;&#227;&#131;&#164;&#227;&#131;&#188;_1" clip-path="url(#clip0_2200_13)">
<path id="Vector" d="M46.3713 28.9871C46.0576 29.1159 45.7718 29.2976 45.5813 29.5575C45.5372 29.6127 45.5023 29.6725 45.4675 29.7346C45.5604 29.1458 45.6301 28.5524 45.6766 27.959C45.6766 27.9613 45.6766 27.9659 45.6766 27.9682C46.0344 28.0372 46.8128 28.166 47.5075 27.3633C47.7445 26.9723 47.7863 26.6848 47.8002 26.4479C47.8095 26.2087 47.8118 26.0178 47.9977 25.7854C47.7723 25.7946 47.073 25.9258 46.5037 26.2547C46.2249 26.418 45.9624 26.6319 45.7928 26.9079C45.7649 26.9562 45.744 27.0091 45.7207 27.0597C45.7393 26.4732 45.73 25.8843 45.6905 25.2978C45.8694 25.3093 46.1459 25.3162 46.4573 25.2173C46.7686 25.1161 47.1264 24.9068 47.3959 24.4744C47.7375 23.651 47.375 23.3727 47.6747 22.8851C47.4494 22.9219 46.8081 23.1335 46.276 23.5268C46.0112 23.7246 45.7835 23.9638 45.6626 24.2513C45.6394 24.3042 45.6278 24.3594 45.6139 24.4146C45.5511 23.8235 45.4605 23.2347 45.3467 22.6505C45.6975 22.6252 46.4456 22.5447 46.9127 21.6339C47.1497 20.7921 46.7268 20.5782 46.9777 20.063C46.7686 20.1251 46.1482 20.4126 45.6905 20.8588C45.4117 21.1302 45.2049 21.4499 45.1678 21.8271C45.026 21.2314 44.8587 20.6426 44.6659 20.0607C44.6659 20.0607 44.6682 20.0653 44.6705 20.0676C45.0074 20.0009 45.73 19.833 46.0576 18.8946C46.2133 18.039 45.7602 17.8895 45.9368 17.3628C45.7416 17.4479 45.1747 17.7998 44.789 18.2851C44.5683 18.5749 44.3894 18.9107 44.3917 19.2833C44.2546 18.9199 44.1129 18.5588 43.9572 18.2046C43.8666 17.993 43.769 17.786 43.6691 17.579C43.6738 17.5836 43.6738 17.5859 43.6784 17.5905C43.9874 17.4916 44.6984 17.2248 44.8843 16.2864C44.9029 15.4538 44.4916 15.3342 44.5892 14.8098C44.4057 14.9179 43.9108 15.3181 43.5785 15.8425C43.3833 16.1553 43.2579 16.4957 43.3044 16.8476C43.0209 16.3025 42.7142 15.7712 42.3843 15.2514C42.684 15.1111 43.3067 14.7845 43.4066 13.8369C43.3276 13.025 42.8861 12.979 42.9349 12.4454C42.7723 12.5696 42.3239 13.0273 42.0706 13.5678C41.9173 13.8967 41.8452 14.2394 41.9382 14.5798C41.5827 14.0646 41.2086 13.5655 40.8113 13.0825C41.0855 12.91 41.6547 12.519 41.6245 11.5967C41.5455 11.2057 41.4015 10.9987 41.2713 10.8377C41.1343 10.6813 41.0227 10.5571 41.0088 10.2972C40.8647 10.4352 40.486 10.932 40.3094 11.4817C40.2142 11.8014 40.17 12.1487 40.2839 12.4684C39.8703 12.0015 39.4358 11.553 38.9827 11.1229C39.1059 11.0263 39.2894 10.8653 39.4312 10.6169C39.5729 10.3662 39.6798 10.0189 39.5985 9.58186C39.3359 8.84815 38.9247 8.89645 38.848 8.39045C38.7248 8.54225 38.4112 9.06895 38.2997 9.63246C38.2439 9.91306 38.2369 10.2029 38.3322 10.4628C38.3461 10.5042 38.3694 10.541 38.3903 10.5801C37.9209 10.1638 37.433 9.77046 36.9288 9.39786C37.1449 9.17245 37.5701 8.68025 37.3377 7.83385C37.2588 7.65905 37.1728 7.53254 37.0868 7.43364C36.9985 7.33934 36.9102 7.27724 36.8312 7.21744C36.6709 7.10014 36.5385 7.01044 36.4665 6.77124C36.3666 6.93224 36.1249 7.47964 36.0854 8.02935C36.0645 8.30765 36.1017 8.57675 36.2225 8.82055C36.2434 8.86195 36.269 8.90105 36.2945 8.94015C35.8972 8.66645 35.4883 8.40425 35.0724 8.15815C35.1142 7.83615 35.0887 7.30024 34.4544 6.99204C33.762 6.78734 33.5064 7.13464 33.13 6.91384C33.1416 7.09554 33.2438 7.63374 33.5203 8.01555C33.7875 8.38585 34.2174 8.59285 34.9493 8.32835C35.1142 8.42495 35.2745 8.52615 35.4372 8.62735C35.1467 8.59515 34.8563 8.68945 34.6077 8.84125C34.1384 9.12415 33.7806 9.59796 33.683 9.76126C34.1198 9.64626 34.157 10.0189 34.8493 10.0051C35.2606 9.92916 35.558 9.76126 35.7648 9.58186C35.9553 9.41396 36.0715 9.22995 36.1458 9.09655C36.6384 9.43466 37.117 9.79116 37.5771 10.1684C37.2936 10.0971 36.9939 10.1523 36.7151 10.288C36.1969 10.5295 35.7741 10.9688 35.6533 11.1229C36.1179 11.0493 36.1272 11.4081 36.8103 11.5024C37.6166 11.4725 38.0557 11.001 38.2416 10.7319C38.6853 11.1252 39.1129 11.5346 39.5241 11.9601C39.5032 11.9532 39.4846 11.9417 39.4637 11.9371C39.1895 11.8566 38.8991 11.8888 38.6226 11.9762C38.0743 12.151 37.5933 12.5443 37.4516 12.6869C37.9256 12.6731 37.8698 13.0572 38.5785 13.209C39.3963 13.2803 39.8935 12.8617 40.1189 12.6087C40.5092 13.048 40.881 13.5057 41.2342 13.9749C40.9577 13.8254 40.6347 13.8047 40.3257 13.8668C39.7379 13.9864 39.1988 14.3291 39.0385 14.4556C39.5404 14.4832 39.4219 14.8765 40.1073 15.1249C40.9344 15.2859 41.4944 14.9248 41.7546 14.6994C42.0799 15.1709 42.3866 15.6562 42.6724 16.1507C42.6584 16.1415 42.6468 16.1277 42.6329 16.1185C42.3727 15.9736 42.066 15.9345 41.7639 15.9575C41.1598 16.0012 40.572 16.2841 40.3954 16.3922C40.637 16.4382 40.723 16.5601 40.8345 16.705C40.9437 16.8522 41.0855 17.0155 41.4038 17.1949C42.2147 17.4686 42.835 17.1627 43.1231 16.9672C43.3485 17.4019 43.5623 17.8412 43.7574 18.2897C43.7923 18.3679 43.8225 18.4461 43.855 18.5243C43.8364 18.5082 43.8178 18.4875 43.7992 18.4714C43.5599 18.2897 43.2579 18.2115 42.9512 18.1954C42.3401 18.1632 41.7128 18.3794 41.5199 18.4668C41.9916 18.6301 41.7871 18.9889 42.4307 19.4029C43.2277 19.7755 43.8759 19.5501 44.1989 19.3822C44.3987 19.9158 44.5753 20.4586 44.7333 21.0083C44.5172 20.7507 44.2012 20.6081 43.862 20.5529C43.2323 20.4517 42.5678 20.592 42.3587 20.6587C42.5934 20.7645 42.6608 20.9048 42.7281 21.0773C42.7909 21.2544 42.8699 21.4591 43.1626 21.7144C43.9224 22.1836 44.6241 22.0387 44.9656 21.9122C45.0957 22.4573 45.2003 23.0093 45.2862 23.5636C45.2723 23.5406 45.2607 23.5153 45.2468 23.4946C45.0493 23.2508 44.7565 23.0967 44.4498 23.007C43.8341 22.823 43.144 22.8851 42.9256 22.9265C43.1464 23.0622 43.1859 23.214 43.237 23.3957C43.2904 23.5797 43.3601 23.7936 43.6064 24.088C44.3104 24.6676 45.0516 24.6009 45.4094 24.5158C45.421 24.617 45.4326 24.7182 45.4419 24.8194C45.4861 25.284 45.507 25.7487 45.5139 26.2156C45.4954 26.1788 45.4814 26.1374 45.4605 26.1029C45.2955 25.8314 45.026 25.6382 44.7309 25.5048C44.1385 25.2403 43.4368 25.215 43.2091 25.2288C43.611 25.5646 43.2672 25.8361 43.7435 26.4847C44.3708 27.1655 45.1329 27.1931 45.5047 27.154C45.4837 27.7152 45.4396 28.2764 45.3745 28.8376C45.2677 28.4834 45.0028 28.2074 44.6938 28.0142C44.1199 27.6669 43.4043 27.5473 43.1742 27.5312C43.5692 27.9222 43.1626 28.1568 43.5437 28.8813C43.8434 29.2769 44.178 29.5046 44.4847 29.6311C44.7797 29.7507 45.0562 29.7806 45.2421 29.7852C45.1538 30.3303 45.0446 30.8731 44.9191 31.4113C44.8564 31.0479 44.6287 30.742 44.3174 30.5097C43.7807 30.0911 43.0767 29.8841 42.8466 29.8404C43.1766 30.2866 42.7862 30.4821 43.0581 31.2526C43.5321 32.0967 44.2848 32.3129 44.6729 32.3681C44.5242 32.8925 44.3569 33.41 44.171 33.9206C44.171 33.8838 44.171 33.847 44.1663 33.8102C44.1013 33.479 43.9061 33.1869 43.6622 32.9454C43.1742 32.4624 42.4865 32.1726 42.2588 32.1013C42.3982 32.3405 42.3564 32.5038 42.3099 32.7039C42.2611 32.904 42.224 33.1455 42.3053 33.5503C42.677 34.4588 43.4182 34.7693 43.8016 34.8659C43.5948 35.365 43.3694 35.8595 43.1254 36.3425C43.144 35.9561 42.9675 35.5858 42.7281 35.2868C42.296 34.7417 41.6384 34.3714 41.4154 34.2725C41.6291 34.7923 41.1691 34.8866 41.2876 35.7376C41.5455 36.7013 42.2658 37.1038 42.6398 37.2464C42.5376 37.4304 42.4331 37.6121 42.3262 37.7938C42.1542 38.0767 41.9707 38.355 41.7848 38.631C41.7941 38.5827 41.8011 38.5344 41.8034 38.4838C41.829 38.1388 41.7105 37.8007 41.5269 37.5017C41.1552 36.8991 40.5232 36.4368 40.3118 36.3103C40.4047 36.5909 40.3234 36.7427 40.2188 36.9244C40.1166 37.1107 40.0027 37.3292 40.0074 37.7685C40.1631 38.7782 40.8206 39.2658 41.183 39.4613C40.8624 39.8891 40.5255 40.3031 40.1723 40.7056C40.1863 40.6596 40.2002 40.6159 40.2095 40.5699C40.2816 40.2249 40.2142 39.8799 40.0539 39.5441C39.7472 38.8817 39.1756 38.3458 38.9758 38.1917C39.0292 38.4792 38.934 38.6287 38.8155 38.8058C38.6877 38.9783 38.5436 39.1807 38.4879 39.62C38.5134 40.1536 38.6737 40.5653 38.8689 40.8689C39.0594 41.161 39.2894 41.3588 39.4544 41.4784C39.085 41.8579 38.6993 42.2259 38.302 42.5778C38.4832 42.2098 38.4739 41.7866 38.3392 41.3841C38.1184 40.6803 37.6119 40.0685 37.433 39.8868C37.4516 40.4779 36.9939 40.4158 36.7592 41.2553C36.657 42.2995 37.1821 42.9711 37.4888 43.2609C37.0798 43.5876 36.6547 43.8912 36.2179 44.1833C36.2457 44.1442 36.2759 44.1074 36.2968 44.066C36.4548 43.7325 36.4688 43.3507 36.4061 42.9849C36.2806 42.2512 35.8531 41.5681 35.6951 41.3634C35.6695 41.6578 35.5301 41.7728 35.3675 41.9177C35.2002 42.0603 35.019 42.2466 34.8354 42.6491C34.5821 43.6865 35.0306 44.4455 35.3001 44.7721C35.2397 44.8089 35.1816 44.848 35.1212 44.8825C34.7192 45.0987 34.3173 45.3103 33.9083 45.515C34.1965 45.1907 34.2987 44.7445 34.2847 44.3213C34.2638 43.5761 33.9223 42.8239 33.7899 42.5939C33.6528 43.1897 33.1951 42.9619 32.7513 43.7716C32.3447 44.7675 32.6932 45.5978 32.9209 45.9635C32.6281 46.09 32.3331 46.2165 32.0333 46.3246C31.8428 46.3959 31.65 46.4649 31.4571 46.5316C31.7917 46.2395 31.9567 45.8071 32.0031 45.3678C32.0752 44.5904 31.8358 43.79 31.7359 43.5416C31.5384 44.135 31.0621 43.8728 30.4836 44.6318C29.9446 45.6254 30.2234 46.4833 30.4139 46.8789C29.9167 47.033 29.4125 47.1687 28.906 47.286C29.2824 47.0284 29.4938 46.6052 29.5775 46.1636C29.7308 45.3931 29.5682 44.5605 29.4915 44.3006C29.2034 44.8756 28.7968 44.5559 28.1601 45.2505C27.5282 46.182 27.6769 47.079 27.8209 47.5045C27.0147 47.6448 26.1992 47.7368 25.379 47.7828C24.84 47.8127 24.4171 47.9553 24.0593 48.1531C23.7015 47.9553 23.2786 47.815 22.7396 47.7828C21.9194 47.7368 21.1039 47.6448 20.2976 47.5045C20.4393 47.079 20.5904 46.182 19.9584 45.2505C19.3218 44.5559 18.9152 44.8756 18.6271 44.3006C18.5504 44.5605 18.3901 45.3931 18.5411 46.1636C18.6247 46.6052 18.8362 47.0284 19.2126 47.286C18.7061 47.1664 18.2042 47.0307 17.7047 46.8789C17.8952 46.4833 18.1717 45.6231 17.635 44.6318C17.0564 43.8728 16.5801 44.135 16.3826 43.5416C16.2827 43.79 16.0411 44.5904 16.1154 45.3678C16.1642 45.8071 16.3269 46.2395 16.6614 46.5316C16.4686 46.4626 16.2781 46.3959 16.0852 46.3246C15.7832 46.2142 15.4904 46.09 15.1977 45.9635C15.423 45.5978 15.7716 44.7698 15.3673 43.7716C14.9258 42.9619 14.4658 43.1874 14.3287 42.5939C14.1963 42.8239 13.8547 43.5761 13.8338 44.3213C13.8199 44.7445 13.9198 45.1907 14.2102 45.515C13.8036 45.3103 13.3993 45.0987 12.9974 44.8825C12.937 44.8457 12.8789 44.8089 12.8185 44.7721C13.088 44.4455 13.5387 43.6865 13.2831 42.6491C13.0996 42.2466 12.9184 42.0626 12.7511 41.9177C12.5861 41.7728 12.449 41.6601 12.4235 41.3634C12.2655 41.5704 11.838 42.2512 11.7125 42.9849C11.6498 43.3507 11.6637 43.7325 11.8217 44.066C11.8426 44.1074 11.8751 44.1442 11.9007 44.1833C11.4639 43.8935 11.041 43.5876 10.6298 43.2609C10.9388 42.9711 11.4639 42.2995 11.3593 41.2553C11.1247 40.4135 10.6669 40.4756 10.6855 39.8868C10.5043 40.0685 10.0001 40.6803 9.77939 41.3841C9.64463 41.7866 9.63302 42.2098 9.81657 42.5778C9.41926 42.2259 9.03357 41.8602 8.66414 41.4784C8.82911 41.3588 9.05913 41.161 9.24965 40.8689C9.44714 40.5653 9.60514 40.1559 9.63069 39.62C9.57493 39.1807 9.43088 38.9783 9.30309 38.8058C9.18692 38.6264 9.09165 38.4792 9.14277 38.1917C8.94528 38.3458 8.37371 38.884 8.06469 39.5441C7.90437 39.8799 7.83932 40.2272 7.90902 40.5699C7.91832 40.6136 7.93226 40.6596 7.9462 40.7056C7.59303 40.3031 7.25613 39.8891 6.9355 39.4613C7.30028 39.2658 7.95549 38.7782 8.11116 37.7685C8.11581 37.3292 8.00196 37.1107 7.89973 36.9244C7.79517 36.7427 7.71618 36.5886 7.80679 36.3103C7.59768 36.4345 6.96338 36.8991 6.59163 37.5017C6.40808 37.8007 6.29191 38.1388 6.31514 38.4838C6.31746 38.5321 6.32443 38.5804 6.33373 38.631C6.14785 38.355 5.9643 38.0767 5.79237 37.7938C5.68316 37.6144 5.58093 37.4304 5.4787 37.2464C5.85045 37.1038 6.57304 36.699 6.83094 35.7376C6.94944 34.8866 6.4894 34.7923 6.70315 34.2725C6.4801 34.3714 5.82257 34.744 5.39041 35.2868C5.1511 35.5858 4.97684 35.9561 4.9931 36.3425C4.74914 35.8595 4.52609 35.365 4.31698 34.8659C4.70035 34.767 5.44153 34.4588 5.81328 33.5503C5.89692 33.1455 5.85742 32.904 5.80863 32.7039C5.76216 32.5038 5.72034 32.3428 5.85974 32.1013C5.63205 32.1726 4.94431 32.4624 4.45639 32.9454C4.21242 33.1869 4.01725 33.479 3.9522 33.8102C3.94755 33.847 3.94987 33.8838 3.94755 33.9206C3.76168 33.41 3.59439 32.8902 3.44569 32.3681C3.83138 32.3152 4.58418 32.0967 5.06048 31.2526C5.33232 30.4821 4.94431 30.2866 5.27191 29.8404C5.04189 29.8841 4.33789 30.0911 3.80118 30.5097C3.49216 30.742 3.26446 31.0479 3.1994 31.4113C3.07394 30.8731 2.96474 30.3303 2.87644 29.7852C3.06232 29.7783 3.33881 29.7507 3.63389 29.6311C3.9429 29.5046 4.27748 29.2769 4.57488 28.8813C4.95593 28.1568 4.547 27.9222 4.94431 27.5312C4.71429 27.5473 4.00099 27.6669 3.42478 28.0142C3.11344 28.2074 2.84856 28.4834 2.74401 28.8376C2.67663 28.2787 2.63248 27.7175 2.6139 27.154C2.98565 27.1931 3.74774 27.1632 4.37507 26.4847C4.84905 25.8361 4.50518 25.5646 4.90946 25.2288C4.68408 25.215 3.98008 25.2426 3.3876 25.5048C3.09252 25.6359 2.82301 25.8291 2.65804 26.1029C2.63713 26.1374 2.62319 26.1788 2.6046 26.2156C2.61157 25.751 2.63248 25.284 2.67663 24.8194C2.68592 24.7182 2.69986 24.617 2.70916 24.5158C3.06697 24.6009 3.80815 24.6676 4.51215 24.088C4.75843 23.7936 4.82814 23.5797 4.88158 23.3957C4.93501 23.2117 4.97219 23.0622 5.19524 22.9265C4.97684 22.8851 4.28677 22.8253 3.67106 23.007C3.36437 23.099 3.07161 23.2531 2.87412 23.4946C2.85786 23.5153 2.84856 23.5406 2.83462 23.5636C2.91827 23.0093 3.02514 22.4596 3.15526 21.9122C3.4968 22.0387 4.19848 22.1836 4.95825 21.7144C5.251 21.4614 5.33 21.2544 5.39273 21.0773C5.46244 20.9025 5.52749 20.7645 5.76216 20.6587C5.55537 20.592 4.88855 20.4517 4.25889 20.5529C3.91735 20.6081 3.60368 20.7507 3.3876 21.0083C3.54327 20.4586 3.72218 19.9181 3.92199 19.3822C4.24495 19.5478 4.89319 19.7732 5.69013 19.4029C6.33373 18.9889 6.12926 18.6278 6.60092 18.4668C6.40808 18.3794 5.78075 18.1632 5.16968 18.1954C4.86531 18.2115 4.56326 18.2897 4.32395 18.4714C4.30304 18.4875 4.28677 18.5082 4.26819 18.5243C4.30072 18.4461 4.33092 18.3679 4.36577 18.2897C4.56094 17.8412 4.7747 17.3996 5.00007 16.9672C5.28818 17.165 5.90854 17.4709 6.71942 17.1949C7.03773 17.0155 7.17946 16.8522 7.28866 16.705C7.39786 16.5601 7.48383 16.4382 7.72779 16.3922C7.54889 16.2841 6.96338 16.0012 6.35929 15.9575C6.05724 15.9345 5.75054 15.9736 5.49032 16.1185C5.47638 16.1277 5.46476 16.1392 5.45082 16.1507C5.7366 15.6539 6.0433 15.1709 6.36858 14.6994C6.62648 14.9248 7.18875 15.2859 8.0159 15.1249C8.70132 14.8765 8.58282 14.4832 9.08468 14.4556C8.92437 14.3291 8.38533 13.9841 7.7975 13.8668C7.48616 13.807 7.16552 13.8277 6.88903 13.9749C7.24219 13.5057 7.61394 13.048 8.00428 12.6087C8.22966 12.8594 8.72687 13.278 9.54473 13.209C10.2557 13.0595 10.1999 12.6754 10.6716 12.6869C10.5299 12.5466 10.0512 12.151 9.50058 11.9762C9.22641 11.8888 8.93366 11.8566 8.65949 11.9371C8.63858 11.944 8.61999 11.9532 8.59908 11.9601C9.00801 11.5323 9.43785 11.1229 9.88162 10.7319C10.0675 11.001 10.5066 11.4725 11.3129 11.5024C11.996 11.4081 12.0053 11.0493 12.4699 11.1229C12.3491 10.9688 11.9286 10.5295 11.4081 10.288C11.1293 10.1523 10.8296 10.0971 10.5461 10.1684C11.0085 9.79116 11.4871 9.43466 11.9774 9.09655C12.0517 9.23225 12.1679 9.41626 12.3584 9.58186C12.5652 9.76356 12.8603 9.92916 13.2739 10.0051C13.9686 10.0189 14.0034 9.64626 14.4402 9.76126C14.3426 9.59796 13.9848 9.12415 13.5155 8.84125C13.2669 8.69175 12.9788 8.59745 12.686 8.62735C12.8463 8.52615 13.009 8.42495 13.1739 8.32835C13.9058 8.59285 14.3357 8.38355 14.6029 8.01555C14.877 7.63144 14.9816 7.09324 14.9932 6.91384C14.6168 7.13464 14.3612 6.78734 13.6688 6.99204C13.0345 7.29794 13.009 7.83615 13.0508 8.15815C12.6349 8.40425 12.2283 8.66645 11.8287 8.94015C11.8542 8.90105 11.8821 8.86195 11.9007 8.82055C12.0192 8.57445 12.0587 8.30765 12.0378 8.02935C12.0006 7.47734 11.759 6.93224 11.6567 6.77124C11.5847 7.00814 11.4546 7.10014 11.292 7.21744C11.213 7.27724 11.1223 7.33934 11.0364 7.43364C10.9527 7.53254 10.8668 7.65905 10.7854 7.83385C10.5531 8.68025 10.9783 9.17245 11.1944 9.39786C10.6902 9.77276 10.2023 10.1661 9.73292 10.5801C9.75384 10.541 9.77707 10.5042 9.79101 10.4628C9.88627 10.2052 9.8793 9.91536 9.82354 9.63246C9.71201 9.06895 9.39835 8.54225 9.27521 8.39045C9.20086 8.89645 8.78728 8.84815 8.52473 9.58186C8.44341 10.0189 8.55029 10.3662 8.69202 10.6169C8.83375 10.8653 9.0173 11.0263 9.14045 11.1229C8.68737 11.553 8.25289 12.0015 7.83932 12.4684C7.95317 12.1487 7.90902 11.8014 7.81376 11.4817C7.6395 10.932 7.25846 10.4375 7.1144 10.2972C7.10046 10.5548 6.98661 10.679 6.85186 10.8377C6.72174 11.001 6.57769 11.2057 6.49869 11.5967C6.46849 12.519 7.03773 12.91 7.3119 13.0825C6.91459 13.5655 6.54051 14.0646 6.18503 14.5798C6.27796 14.2394 6.20594 13.8967 6.05259 13.5678C5.80166 13.0273 5.35091 12.5696 5.18827 12.4454C5.23706 12.979 4.79328 13.0227 4.71661 13.8369C4.81652 14.7845 5.4392 15.1111 5.73893 15.2514C5.409 15.7689 5.1023 16.3025 4.81884 16.8476C4.86531 16.4957 4.73985 16.1553 4.54468 15.8425C4.21242 15.3181 3.71753 14.9202 3.53398 14.8098C3.63156 15.3342 3.22031 15.4538 3.2389 16.2864C3.42478 17.2248 4.13575 17.4893 4.44477 17.5905C4.44942 17.5859 4.44942 17.5836 4.45406 17.579C4.35648 17.786 4.25889 17.9953 4.16596 18.2046C4.01028 18.5611 3.86855 18.9199 3.73147 19.2833C3.73147 18.913 3.55489 18.5749 3.33416 18.2851C2.94847 17.8021 2.38155 17.4502 2.18638 17.3628C2.36296 17.8895 1.90757 18.039 2.06556 18.8946C2.39317 19.833 3.11576 20.0009 3.45266 20.0676C3.45266 20.0676 3.45498 20.063 3.45731 20.0607C3.26446 20.6426 3.09717 21.2314 2.95544 21.8271C2.91827 21.4499 2.71148 21.1302 2.43267 20.8588C1.97495 20.4149 1.35459 20.1251 1.14548 20.063C1.39873 20.5782 0.973545 20.7921 1.21054 21.6339C1.67755 22.5447 2.4257 22.6252 2.77654 22.6505C2.66269 23.2347 2.57207 23.8235 2.50934 24.4146C2.4954 24.3594 2.48378 24.3042 2.46055 24.2513C2.34205 23.9615 2.11203 23.7223 1.84716 23.5268C1.31509 23.1335 0.671497 22.9219 0.448447 22.8851C0.745847 23.3727 0.385714 23.6487 0.72726 24.4744C0.996779 24.9068 1.35459 25.1184 1.66593 25.2173C1.97727 25.3162 2.25609 25.3116 2.43267 25.2978C2.39317 25.8843 2.38387 26.4732 2.40246 27.0597C2.37923 27.0068 2.35832 26.9562 2.33044 26.9079C2.1585 26.6319 1.89828 26.418 1.61946 26.2547C1.05022 25.9258 0.350862 25.7946 0.125488 25.7854C0.313687 26.0178 0.316011 26.2087 0.322981 26.4479C0.336922 26.6848 0.378744 26.9723 0.615735 27.3633C1.31044 28.166 2.0888 28.0372 2.44661 27.9682C2.44661 27.9659 2.44661 27.9613 2.44661 27.959C2.49075 28.5547 2.56046 29.1458 2.65572 29.7346C2.62087 29.6725 2.58369 29.6127 2.54187 29.5575C2.35367 29.2976 2.06556 29.1159 1.7519 28.9871C1.12689 28.7295 0.401978 28.6904 0.171957 28.7111C0.395008 28.9181 0.427536 29.109 0.471681 29.3459C0.51815 29.5805 0.564619 29.8657 0.86899 30.2245C1.68219 30.9398 2.4559 30.7236 2.80906 30.6109C2.80906 30.6063 2.80906 30.6017 2.80906 30.5971C2.87412 30.9283 2.94382 31.2595 3.02282 31.5861C3.08323 31.8368 3.15061 32.0875 3.22031 32.3359C3.17849 32.2738 3.13435 32.214 3.08555 32.1588C2.86018 31.9173 2.54419 31.7678 2.20962 31.6758C1.54047 31.4895 0.80161 31.5332 0.571589 31.5792C1.08042 31.938 0.803934 32.3543 1.45682 33.0351C2.3769 33.663 3.13202 33.3525 3.47589 33.1961C3.47589 33.1915 3.47589 33.1892 3.47589 33.1846C3.6548 33.7412 3.85229 34.2886 4.07302 34.8291C4.02655 34.7762 3.98008 34.7256 3.92664 34.6819C3.66409 34.4657 3.32487 34.353 2.97171 34.2978C2.277 34.1851 1.54744 34.3116 1.31741 34.3852C1.84251 34.7026 1.6427 35.1442 2.38852 35.7583C2.86715 36.0343 3.32022 36.0527 3.66409 35.9952C4.01261 35.9331 4.27748 35.7859 4.44012 35.6847C4.44012 35.6778 4.4378 35.6732 4.43547 35.6663C4.67479 36.1907 4.93501 36.7059 5.21383 37.2119C5.16271 37.1682 5.1116 37.1245 5.05583 37.09C4.75843 36.906 4.3983 36.8347 4.04978 36.814C3.34113 36.7795 2.60693 36.9957 2.3862 37.0992C2.68128 37.228 2.77886 37.4097 2.90665 37.6328C3.04373 37.849 3.22031 38.1066 3.64086 38.3642C4.69338 38.7966 5.39738 38.2837 5.6971 38.0468C5.6971 38.0399 5.69246 38.033 5.69013 38.0261C5.9945 38.5183 6.32211 38.999 6.66598 39.4636C6.60325 39.4222 6.53819 39.3808 6.47081 39.3509C6.14553 39.206 5.79469 39.16 5.42758 39.1899C4.70267 39.2428 3.98705 39.551 3.77562 39.6821C4.09393 39.7764 4.21707 39.9466 4.37739 40.1559C4.53074 40.3675 4.73985 40.6067 5.20686 40.8114C6.3407 41.1104 6.96338 40.517 7.24452 40.2341C7.23755 40.2134 7.22593 40.1996 7.21896 40.1789C7.59303 40.6435 7.99034 41.092 8.40391 41.5221C8.32492 41.4807 8.24592 41.4462 8.16228 41.4186C7.8277 41.299 7.45363 41.3105 7.08885 41.3841C6.35929 41.5313 5.67387 41.9315 5.4787 42.0902C5.8156 42.1454 5.9643 42.2995 6.15715 42.4904C6.35231 42.6744 6.56839 42.9159 7.07723 43.054C8.27148 43.2035 8.81981 42.5226 9.0661 42.2029C9.0568 42.1868 9.04751 42.173 9.03822 42.1569C9.37047 42.4766 9.71201 42.7871 10.0652 43.0839C10.1628 43.169 10.2673 43.2472 10.3672 43.3277C10.2836 43.2955 10.1999 43.2678 10.114 43.2494C9.75848 43.1758 9.37976 43.2403 9.01963 43.3622C8.29704 43.6129 7.66506 44.0959 7.48848 44.2799C8.16925 44.3052 8.20178 44.8457 9.23106 45.0527C10.4671 45.0366 10.9249 44.2776 11.1293 43.9234C11.1223 43.9142 11.113 43.905 11.1061 43.8958C11.5708 44.2316 12.0494 44.5467 12.5373 44.848C12.456 44.8296 12.3747 44.8135 12.2934 44.8089C11.9216 44.7882 11.5475 44.9032 11.199 45.078C10.5159 45.4092 9.94203 45.9819 9.78869 46.1935C10.4648 46.1498 10.5833 46.6765 11.6567 46.7432C12.2655 46.6834 12.6767 46.4005 12.937 46.1291C13.2018 45.8485 13.3319 45.5495 13.4086 45.3563C13.3947 45.3425 13.3784 45.3333 13.3645 45.3195C13.7107 45.5035 14.0592 45.6852 14.4123 45.8554C14.5819 45.9244 14.7492 45.998 14.9165 46.0716C14.8306 46.0647 14.7469 46.0624 14.6633 46.0716C14.4727 46.0877 14.2892 46.1406 14.108 46.2165C13.9314 46.2855 13.7641 46.3752 13.6015 46.4833C12.9579 46.9088 12.456 47.5689 12.3305 47.8012C12.679 47.7253 12.8882 47.8219 13.1507 47.9369C13.4156 48.045 13.7478 48.1485 14.2915 48.1002C14.9026 47.9438 15.2627 47.6425 15.4881 47.3205C15.7135 47.0031 15.8087 46.6834 15.8575 46.4787C15.8343 46.4603 15.8134 46.4511 15.7925 46.435C15.8645 46.4626 15.9342 46.4948 16.0062 46.5201C16.4756 46.6972 16.9519 46.8605 17.4305 47.0123C16.9449 47.0146 16.5197 47.2492 16.1503 47.5666C15.5555 48.0818 15.1465 48.8109 15.049 49.0616C15.6949 48.8109 15.9179 49.3353 16.996 49.1237C18.1833 48.6683 18.3575 47.7368 18.4203 47.3182C18.404 47.3067 18.3877 47.2998 18.3715 47.2906C18.6805 47.3757 18.9918 47.4562 19.3055 47.5275C19.5471 47.5804 19.7888 47.6287 20.0304 47.6724C19.5379 47.7368 19.1359 48.0243 18.792 48.3808C18.239 48.9673 17.8905 49.7378 17.8162 50.0023C18.4691 49.6872 18.7758 50.2047 19.8655 49.8574C21.0202 49.2433 21.0551 48.2865 21.062 47.8541C21.0411 47.8449 21.0225 47.838 21.0039 47.8311C21.5755 47.9093 22.1471 47.9622 22.7233 47.9944C23.1764 48.0197 23.5388 48.1232 23.8525 48.2704C23.4552 48.5303 23.1462 48.8569 22.8488 49.1697C22.6652 49.3629 22.4886 49.5423 22.2958 49.701L22.391 49.8758C22.5909 49.7102 22.7698 49.5262 22.958 49.3307C23.2902 48.9834 23.6225 48.6384 24.0569 48.3831C24.4914 48.6384 24.8237 48.9834 25.1559 49.3307C25.3441 49.5262 25.523 49.7102 25.7229 49.8758L25.8181 49.701C25.6253 49.5423 25.451 49.3606 25.2651 49.1697C24.9677 48.8569 24.6564 48.5303 24.2614 48.2704C24.5728 48.1209 24.9375 48.0197 25.3906 47.9944C25.9645 47.9622 26.5384 47.907 27.11 47.8311C27.0914 47.8403 27.0705 47.8472 27.0519 47.8541C27.0588 48.2865 27.0937 49.2433 28.2484 49.8574C29.3381 50.2047 29.6448 49.6872 30.2977 50.0023C30.2234 49.7378 29.8772 48.9673 29.3219 48.3808C28.978 48.0243 28.5737 47.7368 28.0835 47.6724C28.3251 47.6287 28.5691 47.5804 28.8084 47.5275C29.1221 47.4562 29.4334 47.3757 29.7424 47.2906C29.7261 47.2998 29.7099 47.309 29.6936 47.3182C29.7564 47.7368 29.9283 48.6683 31.1179 49.1237C32.196 49.3353 32.419 48.8086 33.0649 49.0616C32.9674 48.8109 32.5584 48.0818 31.9636 47.5666C31.5942 47.2492 31.1667 47.0146 30.6834 47.0123C31.162 46.8605 31.6383 46.6972 32.1077 46.5201C32.1797 46.4948 32.2494 46.4626 32.3214 46.435C32.2982 46.4511 32.2773 46.4603 32.2564 46.4787C32.3052 46.6834 32.3981 47.0031 32.6258 47.3205C32.8512 47.6425 33.2113 47.9415 33.8224 48.1002C34.3661 48.1485 34.6983 48.045 34.9632 47.9369C35.2257 47.8219 35.4372 47.7253 35.7834 47.8012C35.6579 47.5689 35.156 46.9111 34.5124 46.4833C34.3521 46.3752 34.1825 46.2855 34.0059 46.2165C33.827 46.1406 33.6412 46.09 33.4506 46.0716C33.367 46.0624 33.2833 46.067 33.1974 46.0716C33.3647 45.998 33.532 45.9244 33.7016 45.8554C34.0547 45.6852 34.4032 45.5035 34.7494 45.3195C34.7355 45.3333 34.7192 45.3425 34.7053 45.3563C34.7796 45.5495 34.9121 45.8508 35.1769 46.1291C35.4372 46.4005 35.8507 46.6834 36.4572 46.7432C37.5306 46.6765 37.6468 46.1498 38.3252 46.1935C38.1719 45.9842 37.598 45.4092 36.9149 45.078C36.5664 44.9032 36.1923 44.7859 35.8205 44.8089C35.7392 44.8135 35.6579 44.8296 35.5766 44.848C36.0645 44.5467 36.5431 44.2293 37.0078 43.8935C37.0009 43.9027 36.9916 43.9119 36.9846 43.9211C37.189 44.2753 37.6468 45.0366 38.8828 45.0504C39.9121 44.8434 39.9447 44.3029 40.6254 44.2776C40.4488 44.0936 39.8169 43.6106 39.0943 43.3599C38.7341 43.2357 38.3554 43.1735 37.9999 43.2472C37.9163 43.2679 37.8326 43.2931 37.7467 43.3253C37.8466 43.2448 37.9511 43.1666 38.0487 43.0815C38.4019 42.7848 38.7434 42.4743 39.0757 42.1546C39.0664 42.1707 39.0571 42.1845 39.0478 42.2006C39.2941 42.5203 39.8424 43.2011 41.0367 43.0516C41.5455 42.9136 41.7593 42.6721 41.9568 42.4881C42.1473 42.2995 42.2983 42.1431 42.6352 42.0879C42.44 41.9292 41.7546 41.529 41.0251 41.3818C40.6603 41.3082 40.2862 41.2967 39.9516 41.4163C39.8703 41.4439 39.789 41.4784 39.71 41.5198C40.1236 41.0897 40.5185 40.6412 40.8949 40.1766C40.888 40.195 40.8764 40.2111 40.8694 40.2318C41.1505 40.5124 41.7732 41.1058 42.907 40.8091C43.3741 40.6044 43.5832 40.3652 43.7365 40.1536C43.8968 39.9443 44.02 39.7741 44.3383 39.6798C44.1269 39.5487 43.4136 39.2405 42.6863 39.1876C42.3192 39.1577 41.9684 39.2037 41.6431 39.3486C41.5757 39.3785 41.5107 39.4199 41.4479 39.4613C41.7918 38.9944 42.1194 38.516 42.4238 38.0238C42.4238 38.0307 42.4191 38.0376 42.4168 38.0445C42.7165 38.2791 43.4205 38.7943 44.473 38.3619C44.8936 38.1043 45.0702 37.849 45.2073 37.6305C45.335 37.4074 45.4326 37.2257 45.7277 37.0969C45.507 36.9934 44.7728 36.7772 44.0641 36.8117C43.7156 36.8324 43.3531 36.9037 43.0581 37.0877C43.0023 37.1222 42.9512 37.1659 42.9001 37.2096C43.1789 36.7036 43.4391 36.1884 43.6784 35.664C43.6784 35.6709 43.6761 35.6755 43.6738 35.6824C43.8364 35.7836 44.1013 35.9308 44.4498 35.9929C44.7937 36.0504 45.2468 36.032 45.7254 35.756C46.4712 35.1442 46.2714 34.7003 46.7965 34.3829C46.5665 34.307 45.8369 34.1828 45.1422 34.2955C44.7914 34.3507 44.4498 34.4634 44.1873 34.6796C44.1338 34.7233 44.085 34.7739 44.0409 34.8268C44.2616 34.2863 44.4614 33.7366 44.638 33.1823C44.638 33.1869 44.638 33.1892 44.638 33.1938C44.9819 33.3479 45.737 33.6584 46.6571 33.0328C47.31 32.352 47.0358 31.938 47.5423 31.5769C47.3123 31.5286 46.5711 31.4849 45.9043 31.6735C45.5697 31.7678 45.2537 31.9173 45.0283 32.1565C44.9796 32.2117 44.9354 32.2715 44.8936 32.3336C44.9633 32.0852 45.0283 31.8345 45.0911 31.5838C45.1701 31.2549 45.2398 30.926 45.3048 30.5948C45.3048 30.5994 45.3048 30.604 45.3048 30.6086C45.658 30.7213 46.4317 30.9375 47.2449 30.2222C47.5493 29.8634 47.5981 29.5782 47.6422 29.3436C47.6864 29.1067 47.7189 28.9158 47.9419 28.7088C47.7119 28.6881 46.987 28.7272 46.362 28.9848L46.3713 28.9871Z" fill="#E5B43B"/>
<path id="Vector_2" d="M46.2202 28.8192C45.9065 28.948 45.6207 29.1297 45.4302 29.3896C45.3861 29.4448 45.3512 29.5046 45.3163 29.5667C45.4093 28.9779 45.479 28.3845 45.5255 27.7911C45.5255 27.7934 45.5255 27.798 45.5255 27.8003C45.8833 27.8693 46.6616 27.9981 47.3563 27.1954C47.5933 26.8044 47.6351 26.5169 47.6491 26.28C47.6584 26.0408 47.6607 25.8499 47.8466 25.6176C47.6212 25.6268 46.9218 25.7579 46.3526 26.0868C46.0738 26.2501 45.8112 26.464 45.6416 26.74C45.6138 26.7883 45.5928 26.8412 45.5696 26.8918C45.5882 26.3053 45.5789 25.7165 45.5394 25.13C45.7183 25.1415 45.9948 25.1484 46.3061 25.0495C46.6175 24.9483 46.9753 24.739 47.2448 24.3066C47.5864 23.4832 47.2239 23.2049 47.5236 22.7173C47.2982 22.7541 46.657 22.9657 46.1249 23.359C45.86 23.5568 45.6323 23.796 45.5115 24.0835C45.4883 24.1364 45.4767 24.1916 45.4627 24.2468C45.4 23.6557 45.3094 23.0669 45.1955 22.4827C45.5464 22.4574 46.2945 22.3769 46.7615 21.4661C46.9985 20.6243 46.5757 20.4104 46.8266 19.8952C46.6175 19.9573 45.9971 20.2448 45.5394 20.691C45.2606 20.9624 45.0538 21.2821 45.0166 21.6593C44.8749 21.0636 44.7076 20.4748 44.5148 19.8929C44.5148 19.8929 44.5171 19.8975 44.5194 19.8998C44.8563 19.8331 45.5789 19.6652 45.9065 18.7268C46.0622 17.8712 45.6091 17.7217 45.7857 17.195C45.5905 17.2801 45.0236 17.632 44.6379 18.1173C44.4172 18.4071 44.2383 18.7429 44.2406 19.1155C44.1035 18.7521 43.9618 18.391 43.8061 18.0368C43.7155 17.8252 43.6179 17.6182 43.518 17.4112C43.5227 17.4158 43.5227 17.4181 43.5273 17.4227C43.8363 17.3238 44.5473 17.057 44.7332 16.1185C44.7518 15.2859 44.3405 15.1663 44.4381 14.6419C44.2545 14.75 43.7596 15.1502 43.4274 15.6746C43.2322 15.9874 43.1068 16.3278 43.1532 16.6798C42.8698 16.1346 42.5631 15.6033 42.2331 15.0835C42.5329 14.9432 43.1555 14.6166 43.2555 13.669C43.1765 12.8571 42.735 12.8111 42.7838 12.2775C42.6212 12.4017 42.1727 12.8594 41.9195 13.3999C41.7661 13.7288 41.6941 14.0715 41.787 14.4119C41.4316 13.8967 41.0575 13.3976 40.6602 12.9146C40.9343 12.7421 41.5036 12.3511 41.4734 11.4288C41.3944 11.0378 41.2503 10.8308 41.1202 10.6698C40.9831 10.5134 40.8716 10.3892 40.8577 10.1293C40.7136 10.2673 40.3349 10.7641 40.1583 11.3138C40.063 11.6335 40.0189 11.9808 40.1327 12.3005C39.7192 11.8336 39.2847 11.3851 38.8316 10.955C38.9548 10.8584 39.1383 10.6974 39.28 10.449C39.4218 10.1983 39.5287 9.85101 39.4473 9.41401C39.1848 8.68031 38.7735 8.72861 38.6969 8.2226C38.5737 8.3744 38.2601 8.90111 38.1485 9.46461C38.0928 9.74521 38.0858 10.035 38.1811 10.2949C38.195 10.3363 38.2182 10.3731 38.2391 10.4122C37.7698 9.99591 37.2819 9.60261 36.7777 9.23001C36.9938 9.00461 37.419 8.51241 37.1866 7.666C37.1076 7.4912 37.0217 7.3647 36.9357 7.2658C36.8474 7.1715 36.7591 7.1094 36.6801 7.0496C36.5198 6.9323 36.3874 6.84259 36.3153 6.60339C36.2154 6.76439 35.9738 7.3118 35.9343 7.8615C35.9134 8.1398 35.9506 8.4089 36.0714 8.65271C36.0923 8.69411 36.1178 8.73321 36.1434 8.77231C35.7461 8.4986 35.3372 8.2364 34.9213 7.9903C34.9631 7.6683 34.9375 7.1324 34.3032 6.8242C33.6108 6.61949 33.3553 6.9668 32.9789 6.74599C32.9905 6.9277 33.0927 7.4659 33.3692 7.8477C33.6364 8.218 34.0662 8.425 34.7981 8.1605C34.9631 8.2571 35.1234 8.3583 35.286 8.4595C34.9956 8.4273 34.7052 8.5216 34.4566 8.67341C33.9872 8.95631 33.6294 9.43011 33.5318 9.59341C33.9687 9.47841 34.0058 9.85101 34.6982 9.83721C35.1095 9.76131 35.4069 9.59341 35.6137 9.41401C35.8042 9.24611 35.9203 9.06211 35.9947 8.92871C36.4873 9.26681 36.9659 9.62331 37.4259 10.0005C37.1425 9.92921 36.8428 9.98441 36.5639 10.1201C36.0458 10.3616 35.6229 10.8009 35.5021 10.955C35.9668 10.8814 35.9761 11.2402 36.6592 11.3345C37.4654 11.3046 37.9046 10.8331 38.0904 10.564C38.5342 10.9573 38.9617 11.3667 39.373 11.7922C39.3521 11.7853 39.3335 11.7738 39.3126 11.7692C39.0384 11.6887 38.748 11.7209 38.4715 11.8083C37.9232 11.9831 37.4422 12.3764 37.3005 12.519C37.7745 12.5052 37.7187 12.8893 38.4273 13.0411C39.2452 13.1124 39.7424 12.6938 39.9678 12.4408C40.3581 12.8801 40.7299 13.3378 41.083 13.807C40.8065 13.6575 40.4836 13.6368 40.1746 13.6989C39.5867 13.8185 39.0477 14.1612 38.8874 14.2877C39.3892 14.3153 39.2708 14.7086 39.9562 14.957C40.7833 15.118 41.3433 14.7569 41.6035 14.5315C41.9288 15.003 42.2355 15.4883 42.5212 15.9828C42.5073 15.9736 42.4957 15.9598 42.4817 15.9506C42.2215 15.8057 41.9148 15.7666 41.6128 15.7896C41.0087 15.8333 40.4209 16.1162 40.2443 16.2243C40.4859 16.2703 40.5719 16.3923 40.6834 16.5372C40.7926 16.6844 40.9343 16.8477 41.2526 17.0271C42.0635 17.3008 42.6839 16.9949 42.972 16.7994C43.1974 17.2341 43.4111 17.6734 43.6063 18.1219C43.6411 18.2001 43.6714 18.2783 43.7039 18.3565C43.6853 18.3404 43.6667 18.3197 43.6481 18.3036C43.4088 18.1219 43.1068 18.0437 42.8001 18.0276C42.189 17.9954 41.5617 18.2116 41.3688 18.299C41.8405 18.4623 41.636 18.8211 42.2796 19.2351C43.0766 19.6077 43.7248 19.3823 44.0478 19.2144C44.2476 19.748 44.4241 20.2908 44.5821 20.8405C44.3661 20.5829 44.0501 20.4403 43.7109 20.3851C43.0812 20.2839 42.4167 20.4242 42.2076 20.4909C42.4423 20.5967 42.5096 20.737 42.577 20.9095C42.6397 21.0866 42.7187 21.2913 43.0115 21.5466C43.7713 22.0158 44.4729 21.8709 44.8145 21.7444C44.9446 22.2895 45.0492 22.8415 45.1351 23.3958C45.1212 23.3728 45.1096 23.3475 45.0956 23.3268C44.8981 23.083 44.6054 22.9289 44.2987 22.8392C43.683 22.6552 42.9929 22.7173 42.7745 22.7587C42.9952 22.8944 43.0347 23.0462 43.0858 23.2279C43.1393 23.4119 43.209 23.6258 43.4553 23.9202C44.1593 24.4998 44.9005 24.4331 45.2583 24.348C45.2699 24.4492 45.2815 24.5504 45.2908 24.6516C45.3349 25.1162 45.3558 25.5808 45.3628 26.0477C45.3442 26.0109 45.3303 25.9695 45.3094 25.935C45.1444 25.6636 44.8749 25.4704 44.5798 25.337C43.9873 25.0725 43.2857 25.0472 43.058 25.061C43.4599 25.3968 43.116 25.6682 43.5924 26.3168C44.2197 26.9976 44.9818 27.0252 45.3535 26.9861C45.3326 27.5473 45.2885 28.1085 45.2234 28.6697C45.1165 28.3155 44.8517 28.0395 44.5426 27.8463C43.9688 27.499 43.2531 27.3794 43.0231 27.3633C43.4181 27.7543 43.0115 27.9889 43.3925 28.7134C43.6923 29.109 44.0268 29.3367 44.3335 29.4632C44.6286 29.5828 44.9051 29.6127 45.091 29.6173C45.0027 30.1624 44.8935 30.7052 44.768 31.2434C44.7053 30.88 44.4776 30.5741 44.1662 30.3418C43.6295 29.9232 42.9255 29.7162 42.6955 29.6725C43.0254 30.1187 42.6351 30.3142 42.9069 31.0847C43.3809 31.9288 44.1337 32.145 44.5217 32.2002C44.373 32.7246 44.2057 33.2421 44.0199 33.7528C44.0199 33.716 44.0199 33.6792 44.0152 33.6424C43.9502 33.3111 43.755 33.019 43.511 32.7775C43.0231 32.2945 42.3354 32.0047 42.1077 31.9334C42.2471 32.1726 42.2053 32.3359 42.1588 32.536C42.11 32.7361 42.0728 32.9776 42.1541 33.3824C42.5259 34.291 43.2671 34.6015 43.6504 34.6981C43.4437 35.1972 43.2183 35.6917 42.9743 36.1747C42.9929 35.7883 42.8163 35.418 42.577 35.119C42.1449 34.5739 41.4873 34.2036 41.2643 34.1047C41.478 34.6245 41.018 34.7188 41.1365 35.5698C41.3944 36.5335 42.1146 36.936 42.4887 37.0786C42.3865 37.2626 42.2819 37.4443 42.1751 37.626C42.0031 37.9089 41.8196 38.1872 41.6337 38.4632C41.643 38.4149 41.65 38.3666 41.6523 38.316C41.6778 37.971 41.5593 37.6329 41.3758 37.3339C41.004 36.7313 40.3721 36.269 40.1606 36.1425C40.2536 36.4231 40.1722 36.5749 40.0677 36.7566C39.9655 36.9429 39.8516 37.1614 39.8563 37.6007C40.0119 38.6104 40.6695 39.098 41.0319 39.2935C40.7113 39.7213 40.3744 40.1353 40.0212 40.5378C40.0352 40.4918 40.0491 40.4481 40.0584 40.4021C40.1304 40.0571 40.063 39.7121 39.9027 39.3763C39.596 38.7139 39.0245 38.178 38.8247 38.0239C38.8781 38.3114 38.7828 38.4609 38.6643 38.638C38.5365 38.8105 38.3925 39.0129 38.3367 39.4522C38.3623 39.9858 38.5226 40.3975 38.7178 40.7011C38.9083 40.9932 39.1383 41.191 39.3033 41.3106C38.9339 41.6901 38.5482 42.0581 38.1509 42.41C38.3321 42.042 38.3228 41.6188 38.188 41.2163C37.9673 40.5125 37.4608 39.9007 37.2819 39.719C37.3005 40.3101 36.8428 40.248 36.6081 41.0875C36.5059 42.1317 37.031 42.8033 37.3376 43.0931C36.9287 43.4197 36.5035 43.7233 36.0667 44.0154C36.0946 43.9763 36.1248 43.9395 36.1457 43.8981C36.3037 43.5646 36.3177 43.1828 36.2549 42.8171C36.1295 42.0834 35.7019 41.4003 35.5439 41.1956C35.5184 41.49 35.379 41.605 35.2163 41.7499C35.0491 41.8925 34.8678 42.0788 34.6843 42.4813C34.431 43.5186 34.8794 44.2776 35.149 44.6042C35.0886 44.641 35.0305 44.6801 34.9701 44.7146C34.5681 44.9308 34.1661 45.1424 33.7572 45.3471C34.0453 45.0228 34.1476 44.5766 34.1336 44.1534C34.1127 43.4082 33.7712 42.6561 33.6387 42.4261C33.5016 43.0218 33.0439 42.7941 32.6001 43.6037C32.1935 44.5996 32.5421 45.4299 32.7698 45.7956C32.477 45.9221 32.1819 46.0486 31.8822 46.1567C31.6917 46.228 31.4988 46.297 31.306 46.3637C31.6406 46.0716 31.8055 45.6392 31.852 45.1999C31.924 44.4225 31.6847 43.6221 31.5848 43.3737C31.3873 43.9671 30.911 43.7049 30.3325 44.4639C29.7934 45.4575 30.0722 46.3154 30.2628 46.711C29.7655 46.8651 29.2614 47.0008 28.7549 47.1181C29.1312 46.8605 29.3427 46.4373 29.4263 45.9957C29.5797 45.2252 29.417 44.3926 29.3404 44.1327C29.0523 44.7077 28.6456 44.388 28.009 45.0826C27.377 46.0141 27.5257 46.9111 27.6698 47.3366C26.8636 47.4769 26.048 47.5689 25.2279 47.6149C24.6888 47.6448 24.266 47.7874 23.9081 47.9852C23.5503 47.7874 23.1275 47.6471 22.5884 47.6149C21.7683 47.5689 20.9527 47.4769 20.1465 47.3366C20.2882 46.9111 20.4392 46.0141 19.8073 45.0826C19.1706 44.388 18.764 44.7077 18.4759 44.1327C18.3993 44.3926 18.2389 45.2252 18.39 45.9957C18.4736 46.4373 18.685 46.8605 19.0614 47.1181C18.5549 46.9985 18.0531 46.8628 17.5535 46.711C17.7441 46.3154 18.0205 45.4552 17.4838 44.4639C16.9053 43.7049 16.429 43.9671 16.2315 43.3737C16.1316 43.6221 15.8899 44.4225 15.9643 45.1999C16.0131 45.6392 16.1757 46.0716 16.5103 46.3637C16.3175 46.2947 16.1269 46.228 15.9341 46.1567C15.632 46.0463 15.3393 45.9221 15.0465 45.7956C15.2719 45.4299 15.6204 44.6019 15.2161 43.6037C14.7747 42.7941 14.3147 43.0195 14.1776 42.4261C14.0451 42.6561 13.7036 43.4082 13.6827 44.1534C13.6687 44.5766 13.7686 45.0228 14.0591 45.3471C13.6525 45.1424 13.2482 44.9308 12.8462 44.7146C12.7858 44.6778 12.7277 44.641 12.6673 44.6042C12.9369 44.2776 13.3876 43.5186 13.132 42.4813C12.9485 42.0788 12.7672 41.8948 12.6 41.7499C12.435 41.605 12.2979 41.4923 12.2723 41.1956C12.1144 41.4026 11.6868 42.0834 11.5614 42.8171C11.4986 43.1828 11.5126 43.5646 11.6706 43.8981C11.6915 43.9395 11.724 43.9763 11.7496 44.0154C11.3128 43.7256 10.8899 43.4197 10.4786 43.0931C10.7877 42.8033 11.3128 42.1317 11.2082 41.0875C10.9735 40.2457 10.5158 40.3078 10.5344 39.719C10.3532 39.9007 9.849 40.5125 9.62827 41.2163C9.49351 41.6188 9.48189 42.042 9.66544 42.41C9.26814 42.0581 8.88244 41.6924 8.51302 41.3106C8.67798 41.191 8.908 40.9932 9.09852 40.7011C9.29602 40.3975 9.45401 39.9881 9.47957 39.4522C9.42381 39.0129 9.27975 38.8105 9.15196 38.638C9.03579 38.4586 8.94053 38.3114 8.99165 38.0239C8.79415 38.178 8.22259 38.7162 7.91357 39.3763C7.75325 39.7121 7.68819 40.0594 7.7579 40.4021C7.76719 40.4458 7.78113 40.4918 7.79507 40.5378C7.44191 40.1353 7.10501 39.7213 6.78438 39.2935C7.14916 39.098 7.80437 38.6104 7.96004 37.6007C7.96468 37.1614 7.85084 36.9429 7.7486 36.7566C7.64405 36.5749 7.56505 36.4208 7.65567 36.1425C7.44656 36.2667 6.81226 36.7313 6.44051 37.3339C6.25695 37.6329 6.14078 37.971 6.16402 38.316C6.16634 38.3643 6.17331 38.4126 6.1826 38.4632C5.99673 38.1872 5.81318 37.9089 5.64124 37.626C5.53204 37.4466 5.42981 37.2626 5.32758 37.0786C5.69933 36.936 6.42192 36.5312 6.67982 35.5698C6.79832 34.7188 6.33828 34.6245 6.55203 34.1047C6.32898 34.2036 5.67145 34.5762 5.23929 35.119C4.99997 35.418 4.82571 35.7883 4.84198 36.1747C4.59802 35.6917 4.37497 35.1972 4.16586 34.6981C4.54922 34.5992 5.2904 34.291 5.66215 33.3824C5.7458 32.9776 5.7063 32.7361 5.65751 32.536C5.61104 32.3359 5.56922 32.1749 5.70862 31.9334C5.48092 32.0047 4.79319 32.2945 4.30526 32.7775C4.0613 33.019 3.86613 33.3111 3.80108 33.6424C3.79643 33.6792 3.79875 33.716 3.79643 33.7528C3.61055 33.2421 3.44327 32.7223 3.29456 32.2002C3.68026 32.1473 4.43305 31.9288 4.90936 31.0847C5.1812 30.3142 4.79319 30.1187 5.12079 29.6725C4.89077 29.7162 4.18677 29.9232 3.65005 30.3418C3.34103 30.5741 3.11334 30.88 3.04828 31.2434C2.92281 30.7052 2.81361 30.1624 2.72532 29.6173C2.9112 29.6104 3.18769 29.5828 3.48276 29.4632C3.79178 29.3367 4.12636 29.109 4.42376 28.7134C4.8048 27.9889 4.39588 27.7543 4.79319 27.3633C4.56316 27.3794 3.84987 27.499 3.27365 27.8463C2.96231 28.0395 2.69744 28.3155 2.59289 28.6697C2.52551 28.1108 2.48136 27.5496 2.46277 26.9861C2.83452 27.0252 3.59661 26.9953 4.22394 26.3168C4.69792 25.6682 4.35405 25.3968 4.75833 25.061C4.53296 25.0472 3.82896 25.0748 3.23648 25.337C2.9414 25.4681 2.67188 25.6613 2.50692 25.935C2.48601 25.9695 2.47207 26.0109 2.45348 26.0477C2.46045 25.5831 2.48136 25.1162 2.52551 24.6516C2.5348 24.5504 2.54874 24.4492 2.55803 24.348C2.91584 24.4331 3.65702 24.4998 4.36103 23.9202C4.60731 23.6258 4.67701 23.4119 4.73045 23.2279C4.78389 23.0439 4.82107 22.8944 5.04412 22.7587C4.82571 22.7173 4.13565 22.6575 3.51994 22.8392C3.21324 22.9312 2.92049 23.0853 2.723 23.3268C2.70673 23.3475 2.69744 23.3728 2.6835 23.3958C2.76714 22.8415 2.87402 22.2918 3.00413 21.7444C3.34568 21.8709 4.04736 22.0158 4.80713 21.5466C5.09988 21.2936 5.17888 21.0866 5.24161 20.9095C5.31131 20.7347 5.37637 20.5967 5.61104 20.4909C5.40425 20.4242 4.73742 20.2839 4.10777 20.3851C3.76622 20.4403 3.45256 20.5829 3.23648 20.8405C3.39215 20.2908 3.57105 19.7503 3.77087 19.2144C4.09383 19.38 4.74207 19.6054 5.53901 19.2351C6.1826 18.8211 5.97814 18.46 6.4498 18.299C6.25695 18.2116 5.62963 17.9954 5.01856 18.0276C4.71419 18.0437 4.41214 18.1219 4.17283 18.3036C4.15192 18.3197 4.13565 18.3404 4.11706 18.3565C4.14959 18.2783 4.1798 18.2001 4.21465 18.1219C4.40982 17.6734 4.62357 17.2318 4.84895 16.7994C5.13706 16.9972 5.75741 17.3031 6.5683 17.0271C6.88661 16.8477 7.02834 16.6844 7.13754 16.5372C7.24674 16.3923 7.33271 16.2703 7.57667 16.2243C7.39776 16.1162 6.81226 15.8333 6.20816 15.7896C5.90611 15.7666 5.59942 15.8057 5.33919 15.9506C5.32525 15.9598 5.31364 15.9713 5.2997 15.9828C5.58548 15.486 5.89217 15.003 6.21746 14.5315C6.47536 14.7569 7.03763 15.118 7.86478 14.957C8.55019 14.7086 8.4317 14.3153 8.93356 14.2877C8.77324 14.1612 8.2342 13.8162 7.64637 13.6989C7.33503 13.6391 7.0144 13.6598 6.73791 13.807C7.09107 13.3378 7.46282 12.8801 7.85316 12.4408C8.07853 12.6915 8.57575 13.1101 9.3936 13.0411C10.1046 12.8916 10.0488 12.5075 10.5205 12.519C10.3787 12.3787 9.90011 11.9831 9.34946 11.8083C9.07529 11.7209 8.78254 11.6887 8.50837 11.7692C8.48746 11.7761 8.46887 11.7853 8.44796 11.7922C8.85689 11.3644 9.28672 10.955 9.7305 10.564C9.91638 10.8331 10.3555 11.3046 11.1617 11.3345C11.8448 11.2402 11.8541 10.8814 12.3188 10.955C12.198 10.8009 11.7775 10.3616 11.257 10.1201C10.9782 9.98441 10.6785 9.92921 10.395 10.0005C10.8574 9.62331 11.336 9.26681 11.8262 8.92871C11.9006 9.06441 12.0168 9.24841 12.2073 9.41401C12.4141 9.59571 12.7092 9.76131 13.1227 9.83721C13.8174 9.85101 13.8523 9.47841 14.2891 9.59341C14.1915 9.43011 13.8337 8.95631 13.3644 8.67341C13.1158 8.5239 12.8277 8.4296 12.5349 8.4595C12.6952 8.3583 12.8579 8.2571 13.0228 8.1605C13.7547 8.425 14.1845 8.2157 14.4517 7.8477C14.7259 7.4636 14.8305 6.9254 14.8421 6.74599C14.4657 6.9668 14.2101 6.61949 13.5177 6.8242C12.8834 7.1301 12.8579 7.6683 12.8997 7.9903C12.4838 8.2364 12.0772 8.4986 11.6775 8.77231C11.7031 8.73321 11.731 8.69411 11.7496 8.65271C11.8681 8.4066 11.9076 8.1398 11.8867 7.8615C11.8495 7.3095 11.6078 6.76439 11.5056 6.60339C11.4336 6.84029 11.3035 6.9323 11.1408 7.0496C11.0618 7.1094 10.9712 7.1715 10.8853 7.2658C10.8016 7.3647 10.7156 7.4912 10.6343 7.666C10.402 8.51241 10.8272 9.00461 11.0432 9.23001C10.5391 9.60491 10.0511 9.99821 9.5818 10.4122C9.60271 10.3731 9.62595 10.3363 9.63989 10.2949C9.73515 10.0373 9.72818 9.74751 9.67242 9.46461C9.56089 8.90111 9.24723 8.3744 9.12408 8.2226C9.04973 8.72861 8.63616 8.68031 8.37361 9.41401C8.29229 9.85101 8.39917 10.1983 8.5409 10.449C8.68263 10.6974 8.86618 10.8584 8.98932 10.955C8.53625 11.3851 8.10177 11.8336 7.6882 12.3005C7.80204 11.9808 7.7579 11.6335 7.66264 11.3138C7.48838 10.7641 7.10733 10.2696 6.96328 10.1293C6.94934 10.3869 6.83549 10.5111 6.70073 10.6698C6.57062 10.8331 6.42657 11.0378 6.34757 11.4288C6.31736 12.3511 6.88661 12.7421 7.16077 12.9146C6.76346 13.3976 6.38939 13.8967 6.0339 14.4119C6.12684 14.0715 6.05481 13.7288 5.90147 13.3999C5.65054 12.8594 5.19979 12.4017 5.03715 12.2775C5.08594 12.8111 4.64216 12.8548 4.56549 13.669C4.6654 14.6166 5.28808 14.9432 5.5878 15.0835C5.25787 15.601 4.95118 16.1346 4.66772 16.6798C4.71419 16.3278 4.58872 15.9874 4.39355 15.6746C4.0613 15.1502 3.56641 14.7523 3.38286 14.6419C3.48044 15.1663 3.06919 15.2859 3.08778 16.1185C3.27365 17.057 3.98463 17.3215 4.29365 17.4227C4.29829 17.4181 4.29829 17.4158 4.30294 17.4112C4.20535 17.6182 4.10777 17.8275 4.01483 18.0368C3.85916 18.3933 3.71743 18.7521 3.58035 19.1155C3.58035 18.7452 3.40377 18.4071 3.18304 18.1173C2.79735 17.6343 2.23043 17.2824 2.03526 17.195C2.21184 17.7217 1.75645 17.8712 1.91444 18.7268C2.24205 19.6652 2.96464 19.8331 3.30154 19.8998C3.30154 19.8998 3.30386 19.8952 3.30618 19.8929C3.11334 20.4748 2.94605 21.0636 2.80432 21.6593C2.76714 21.2821 2.56036 20.9624 2.28154 20.691C1.82383 20.2471 1.20347 19.9573 0.994357 19.8952C1.24761 20.4104 0.822422 20.6243 1.05941 21.4661C1.52642 22.3769 2.27457 22.4574 2.62541 22.4827C2.51156 23.0669 2.42095 23.6557 2.35822 24.2468C2.34428 24.1916 2.33266 24.1364 2.30942 24.0835C2.19093 23.7937 1.96091 23.5545 1.69604 23.359C1.16397 22.9657 0.520374 22.7541 0.297324 22.7173C0.594724 23.2049 0.234591 23.4809 0.576137 24.3066C0.845656 24.739 1.20347 24.9506 1.51481 25.0495C1.82615 25.1484 2.10496 25.1438 2.28154 25.13C2.24205 25.7165 2.23275 26.3053 2.25134 26.8918C2.2281 26.8389 2.20719 26.7883 2.17931 26.74C2.00738 26.464 1.74715 26.2501 1.46834 26.0868C0.899095 25.7579 0.199739 25.6268 -0.0256348 25.6176C0.162564 25.8499 0.164888 26.0408 0.171858 26.28C0.185799 26.5169 0.22762 26.8044 0.464612 27.1954C1.15932 27.9981 1.93767 27.8693 2.29548 27.8003C2.29548 27.798 2.29548 27.7934 2.29548 27.7911C2.33963 28.3868 2.40933 28.9779 2.50459 29.5667C2.46974 29.5046 2.43257 29.4448 2.39075 29.3896C2.20255 29.1297 1.91444 28.948 1.60078 28.8192C0.975769 28.5616 0.250855 28.5225 0.0208341 28.5432C0.243885 28.7502 0.276413 28.9411 0.320558 29.178C0.367027 29.4126 0.413496 29.6978 0.717867 30.0566C1.53107 30.7719 2.30478 30.5557 2.65794 30.443C2.65794 30.4384 2.65794 30.4338 2.65794 30.4292C2.723 30.7604 2.7927 31.0916 2.8717 31.4182C2.93211 31.6689 2.99949 31.9196 3.06919 32.168C3.02737 32.1059 2.98322 32.0461 2.93443 31.9909C2.70906 31.7494 2.39307 31.5999 2.05849 31.5079C1.38934 31.3216 0.650487 31.3653 0.420466 31.4113C0.9293 31.7701 0.652811 32.1864 1.3057 32.8672C2.22578 33.4951 2.9809 33.1846 3.32477 33.0282C3.32477 33.0236 3.32477 33.0213 3.32477 33.0167C3.50367 33.5734 3.70117 34.1208 3.92189 34.6613C3.87543 34.6084 3.82896 34.5578 3.77552 34.5141C3.51297 34.2979 3.17375 34.1852 2.82058 34.13C2.12587 34.0173 1.39631 34.1438 1.16629 34.2174C1.69139 34.5348 1.49157 34.9764 2.2374 35.5905C2.71603 35.8665 3.1691 35.8849 3.51297 35.8274C3.86148 35.7653 4.12636 35.6181 4.289 35.5169C4.289 35.51 4.28668 35.5054 4.28435 35.4985C4.52367 36.0229 4.78389 36.5381 5.06271 37.0441C5.01159 37.0004 4.96047 36.9567 4.90471 36.9222C4.60731 36.7382 4.24718 36.6669 3.89866 36.6462C3.19001 36.6117 2.4558 36.8279 2.23507 36.9314C2.53015 37.0602 2.62774 37.2419 2.75553 37.465C2.89261 37.6812 3.06919 37.9388 3.48973 38.1964C4.54225 38.6288 5.24626 38.1159 5.54598 37.879C5.54598 37.8721 5.54133 37.8652 5.53901 37.8583C5.84338 38.3505 6.17099 38.8312 6.51486 39.2958C6.45212 39.2544 6.38707 39.213 6.31969 39.1831C5.99441 39.0382 5.64357 38.9922 5.27646 39.0221C4.55155 39.075 3.83593 39.3832 3.62449 39.5143C3.94281 39.6086 4.06595 39.7788 4.22627 39.9881C4.37961 40.1997 4.58872 40.4389 5.05573 40.6436C6.18957 40.9426 6.81226 40.3492 7.09339 40.0663C7.08642 40.0456 7.07481 40.0318 7.06784 40.0111C7.44191 40.4757 7.83922 40.9242 8.25279 41.3543C8.17379 41.3129 8.0948 41.2784 8.01115 41.2508C7.67658 41.1312 7.3025 41.1427 6.93772 41.2163C6.20816 41.3635 5.52275 41.7637 5.32758 41.9224C5.66448 41.9776 5.81318 42.1317 6.00602 42.3226C6.20119 42.5066 6.41727 42.7481 6.92611 42.8861C8.12036 43.0356 8.66869 42.3548 8.91497 42.0351C8.90568 42.019 8.89639 42.0052 8.88709 41.9891C9.21934 42.3088 9.56089 42.6193 9.91405 42.916C10.0116 43.0011 10.1162 43.0793 10.2161 43.1598C10.1325 43.1276 10.0488 43.1 9.96285 43.0816C9.60736 43.008 9.22864 43.0724 8.8685 43.1943C8.14591 43.445 7.51394 43.928 7.33736 44.112C8.01812 44.1373 8.05065 44.6778 9.07994 44.8848C10.316 44.8687 10.7737 44.1097 10.9782 43.7555C10.9712 43.7463 10.9619 43.7371 10.955 43.7279C11.4196 44.0637 11.8983 44.3788 12.3862 44.6801C12.3049 44.6617 12.2236 44.6456 12.1422 44.641C11.7705 44.6203 11.3964 44.7353 11.0479 44.9101C10.3648 45.2413 9.79091 45.814 9.63756 46.0256C10.3137 45.9819 10.4322 46.5086 11.5056 46.5753C12.1144 46.5155 12.5256 46.2326 12.7858 45.9612C13.0507 45.6806 13.1808 45.3816 13.2575 45.1884C13.2435 45.1746 13.2273 45.1654 13.2133 45.1516C13.5595 45.3356 13.9081 45.5173 14.2612 45.6875C14.4308 45.7565 14.5981 45.8301 14.7654 45.9037C14.6794 45.8968 14.5958 45.8945 14.5121 45.9037C14.3216 45.9198 14.1381 45.9727 13.9568 46.0486C13.7803 46.1176 13.613 46.2073 13.4503 46.3154C12.8067 46.7409 12.3049 47.401 12.1794 47.6333C12.5279 47.5574 12.737 47.654 12.9996 47.769C13.2645 47.8771 13.5967 47.9806 14.1404 47.9323C14.7515 47.7759 15.1116 47.4746 15.337 47.1526C15.5623 46.8352 15.6576 46.5155 15.7064 46.3108C15.6832 46.2924 15.6623 46.2832 15.6413 46.2671C15.7134 46.2947 15.7831 46.3269 15.8551 46.3522C16.3244 46.5293 16.8007 46.6926 17.2794 46.8444C16.7938 46.8467 16.3686 47.0813 15.9991 47.3987C15.4043 47.9139 14.9954 48.643 14.8978 48.8937C15.5438 48.643 15.7668 49.1674 16.8449 48.9558C18.0322 48.5004 18.2064 47.5689 18.2692 47.1503C18.2529 47.1388 18.2366 47.1319 18.2204 47.1227C18.5294 47.2078 18.8407 47.2883 19.1544 47.3596C19.396 47.4125 19.6377 47.4608 19.8793 47.5045C19.3867 47.5689 18.9848 47.8564 18.6409 48.2129C18.0879 48.7994 17.7394 49.5699 17.6651 49.8344C18.3179 49.5193 18.6246 50.0368 19.7143 49.6895C20.8691 49.0754 20.9039 48.1186 20.9109 47.6862C20.89 47.677 20.8714 47.6701 20.8528 47.6632C21.4244 47.7414 21.996 47.7943 22.5722 47.8265C23.0252 47.8518 23.3877 47.9553 23.7014 48.1025C23.3041 48.3624 22.995 48.689 22.6976 49.0018C22.5141 49.195 22.3375 49.3744 22.1447 49.5331L22.2399 49.7079C22.4397 49.5423 22.6186 49.3583 22.8068 49.1628C23.1391 48.8155 23.4713 48.4705 23.9058 48.2152C24.3403 48.4705 24.6726 48.8155 25.0048 49.1628C25.193 49.3583 25.3719 49.5423 25.5717 49.7079L25.667 49.5331C25.4741 49.3744 25.2999 49.1927 25.114 49.0018C24.8166 48.689 24.5053 48.3624 24.1103 48.1025C24.4216 47.953 24.7864 47.8518 25.2395 47.8265C25.8134 47.7943 26.3873 47.7391 26.9588 47.6632C26.9402 47.6724 26.9193 47.6793 26.9007 47.6862C26.9077 48.1186 26.9426 49.0754 28.0973 49.6895C29.187 50.0368 29.4937 49.5193 30.1466 49.8344C30.0722 49.5699 29.726 48.7994 29.1707 48.2129C28.8269 47.8564 28.4226 47.5689 27.9324 47.5045C28.174 47.4608 28.418 47.4125 28.6573 47.3596C28.9709 47.2883 29.2823 47.2078 29.5913 47.1227C29.575 47.1319 29.5588 47.1411 29.5425 47.1503C29.6052 47.5689 29.7772 48.5004 30.9668 48.9558C32.0448 49.1674 32.2679 48.6407 32.9138 48.8937C32.8162 48.643 32.4073 47.9139 31.8125 47.3987C31.4431 47.0813 31.0156 46.8467 30.5323 46.8444C31.0109 46.6926 31.4872 46.5293 31.9566 46.3522C32.0286 46.3269 32.0983 46.2947 32.1703 46.2671C32.1471 46.2832 32.1262 46.2924 32.1053 46.3108C32.154 46.5155 32.247 46.8352 32.4747 47.1526C32.7001 47.4746 33.0602 47.7736 33.6713 47.9323C34.2149 47.9806 34.5472 47.8771 34.8121 47.769C35.0746 47.654 35.286 47.5574 35.6322 47.6333C35.5068 47.401 35.0049 46.7432 34.3613 46.3154C34.201 46.2073 34.0314 46.1176 33.8548 46.0486C33.6759 45.9727 33.49 45.9221 33.2995 45.9037C33.2159 45.8945 33.1322 45.8991 33.0462 45.9037C33.2135 45.8301 33.3808 45.7565 33.5504 45.6875C33.9036 45.5173 34.2521 45.3356 34.5983 45.1516C34.5844 45.1654 34.5681 45.1746 34.5542 45.1884C34.6285 45.3816 34.7609 45.6829 35.0258 45.9612C35.286 46.2326 35.6996 46.5155 36.306 46.5753C37.3795 46.5086 37.4956 45.9819 38.1741 46.0256C38.0207 45.8163 37.4468 45.2413 36.7638 44.9101C36.4152 44.7353 36.0412 44.618 35.6694 44.641C35.5881 44.6456 35.5068 44.6617 35.4255 44.6801C35.9134 44.3788 36.392 44.0614 36.8567 43.7256C36.8497 43.7348 36.8404 43.744 36.8335 43.7532C37.0379 44.1074 37.4956 44.8687 38.7317 44.8825C39.761 44.6755 39.7935 44.135 40.4743 44.1097C40.2977 43.9257 39.6657 43.4427 38.9431 43.192C38.583 43.0678 38.2043 43.0057 37.8488 43.0793C37.7652 43.1 37.6815 43.1253 37.5955 43.1575C37.6955 43.077 37.8 42.9988 37.8976 42.9137C38.2508 42.617 38.5923 42.3065 38.9246 41.9868C38.9153 42.0029 38.906 42.0167 38.8967 42.0328C39.143 42.3525 39.6913 43.0333 40.8855 42.8838C41.3944 42.7458 41.6081 42.5043 41.8056 42.3203C41.9961 42.1317 42.1472 41.9753 42.4841 41.9201C42.2889 41.7614 41.6035 41.3612 40.8739 41.214C40.5091 41.1404 40.1351 41.1289 39.8005 41.2485C39.7192 41.2761 39.6379 41.3106 39.5589 41.352C39.9724 40.9219 40.3674 40.4734 40.7438 40.0088C40.7368 40.0272 40.7252 40.0433 40.7183 40.064C40.9994 40.3446 41.6221 40.938 42.7559 40.6413C43.2229 40.4366 43.432 40.1974 43.5854 39.9858C43.7457 39.7765 43.8688 39.6063 44.1872 39.512C43.9757 39.3809 43.2624 39.0727 42.5352 39.0198C42.1681 38.9899 41.8172 39.0359 41.492 39.1808C41.4246 39.2107 41.3595 39.2521 41.2968 39.2935C41.6407 38.8266 41.9683 38.3482 42.2726 37.856C42.2726 37.8629 42.268 37.8698 42.2657 37.8767C42.5654 38.1113 43.2694 38.6265 44.3219 38.1941C44.7425 37.9365 44.919 37.6812 45.0561 37.4627C45.1839 37.2396 45.2815 37.0579 45.5766 36.9291C45.3558 36.8256 44.6216 36.6094 43.913 36.6439C43.5645 36.6646 43.202 36.7359 42.9069 36.9199C42.8512 36.9544 42.8001 36.9981 42.7489 37.0418C43.0278 36.5358 43.288 36.0206 43.5273 35.4962C43.5273 35.5031 43.525 35.5077 43.5227 35.5146C43.6853 35.6158 43.9502 35.763 44.2987 35.8251C44.6426 35.8826 45.0956 35.8642 45.5743 35.5882C46.3201 34.9764 46.1203 34.5325 46.6454 34.2151C46.4153 34.1392 45.6858 34.015 44.9911 34.1277C44.6402 34.1829 44.2987 34.2956 44.0361 34.5118C43.9827 34.5555 43.9339 34.6061 43.8898 34.659C44.1105 34.1185 44.3103 33.5687 44.4869 33.0144C44.4869 33.019 44.4869 33.0213 44.4869 33.0259C44.8308 33.18 45.5859 33.4905 46.506 32.8649C47.1588 32.1841 46.8847 31.7701 47.3912 31.409C47.1612 31.3607 46.42 31.317 45.7532 31.5056C45.4186 31.5999 45.1026 31.7494 44.8772 31.9886C44.8284 32.0438 44.7843 32.1036 44.7425 32.1657C44.8122 31.9173 44.8772 31.6666 44.94 31.4159C45.0189 31.087 45.0887 30.7581 45.1537 30.4269C45.1537 30.4315 45.1537 30.4361 45.1537 30.4407C45.5069 30.5534 46.2806 30.7696 47.0938 30.0543C47.3982 29.6955 47.4469 29.4103 47.4911 29.1757C47.5352 28.9388 47.5678 28.7479 47.7908 28.5409C47.5608 28.5202 46.8359 28.5593 46.2109 28.8169L46.2202 28.8192Z" fill="#E5B43B"/>
</g>
<defs>
<clipPath id="clip0_2200_13">
<rect width="48" height="50" fill="white"/>
</clipPath>
</defs>
</svg>
