<svg width="77" height="102" viewBox="0 0 77 102" fill="none" xmlns="http://www.w3.org/2000/svg">
<g clip-path="url(#clip0_380_3550)">
<g filter="url(#filter0_d_380_3550)">
<path d="M36.8541 96.3852C36.5941 96.1102 36.3841 95.7552 36.0741 95.5652C28.2441 90.8752 24.5041 83.5402 22.8741 74.9152C21.8391 69.4452 21.8891 63.9352 22.8241 58.4302C23.6041 53.8502 26.9191 50.2702 31.3341 49.3452C35.5941 48.4552 40.3741 50.3502 42.4541 54.3652C43.5441 56.4652 43.8491 59.0502 44.1491 61.4602C44.4191 63.6352 44.1791 65.8752 44.2091 68.0852C44.2491 71.2302 45.8941 73.3952 48.6791 74.5602C51.4591 75.7202 53.9641 75.1002 56.1091 72.8602C58.6191 70.2402 59.8291 67.0002 60.1441 63.5602C60.8641 55.6702 59.8191 48.0902 55.9841 40.9302C47.9391 25.9052 31.7141 25.6502 21.1441 33.5702C12.2691 40.2202 8.35414 49.3252 7.63914 60.0602C7.35914 64.2702 7.35914 68.5002 7.21914 72.7202C7.19914 73.3652 7.26414 74.0802 7.00914 74.6352C6.80914 75.0752 6.19414 75.5702 5.74414 75.5902C5.31414 75.6102 4.75414 75.1302 4.43914 74.7252C4.18914 74.4052 4.14414 73.8652 4.13914 73.4202C4.01914 64.5652 4.11914 55.7202 7.22914 47.2652C12.0541 34.1302 21.4591 26.5352 35.3791 25.2052C41.6491 24.6052 47.3491 26.9902 52.2891 30.9802C58.9441 36.3602 61.2741 43.9552 62.9291 51.8652C64.0791 57.3652 63.9991 62.8552 62.1191 68.1952C61.4591 70.0752 60.5691 71.9202 59.4891 73.5952C56.9441 77.5502 53.3041 78.8702 48.6991 77.7702C44.6391 76.8002 41.6441 73.6002 41.1841 69.3102C40.8591 66.2852 40.8841 63.2152 40.8141 60.1652C40.7191 55.8152 38.1691 52.6352 34.3691 52.2102C30.2591 51.7502 26.8441 54.2202 25.9291 58.5852C24.1241 67.1802 25.0391 75.5002 28.8541 83.4402C30.5741 87.0202 33.1141 89.9602 36.3991 92.2002C37.7591 93.1252 39.0391 93.9902 37.7841 95.8752C37.7291 95.9552 37.9341 96.2052 38.0191 96.3752H36.8491L36.8541 96.3852Z" fill="#282828"/>
</g>
<g filter="url(#filter1_d_380_3550)">
<path d="M12.0156 68.6607C12.3806 60.9157 13.5056 53.4807 17.7556 46.8307C22.2506 39.8007 30.3406 36.4907 38.7206 38.2507C45.9756 39.7757 52.3706 46.8507 53.6356 54.5357C54.2856 58.4857 53.6906 62.3007 52.7956 66.0957C52.6606 66.6657 51.7206 67.0407 51.1506 67.5107C50.7856 66.8707 50.1006 66.2257 50.1206 65.6007C50.1756 63.9257 50.5456 62.2607 50.7656 60.5857C51.9056 52.0207 46.4106 43.4757 38.3856 41.3157C30.5706 39.2157 21.6156 43.7757 18.3906 52.0007C14.1656 62.7707 13.8006 73.7457 17.8806 84.7057C18.4206 86.1607 19.2906 87.5007 19.7506 88.9707C19.9856 89.7107 19.6506 90.6307 19.5756 91.4657C18.8206 91.0857 17.6506 90.8957 17.3756 90.2957C15.9606 87.1907 14.3856 84.0707 13.6106 80.7857C12.6856 76.8357 12.5106 72.7107 12.0156 68.6607Z" fill="#282828"/>
</g>
<g filter="url(#filter2_d_380_3550)">
<path d="M36.3899 14.9208C52.5249 14.4808 62.8799 23.8758 68.4699 36.4908C69.3349 38.4408 70.1499 40.4358 70.7249 42.4858C70.9399 43.2458 70.4049 44.2208 70.2149 45.0958C69.4649 44.5158 68.4049 44.0958 68.0199 43.3308C66.1849 39.6908 64.8349 35.7808 62.7599 32.2958C56.9149 22.4758 48.0249 17.9758 36.6699 17.8358C25.7349 17.7008 16.9199 21.9358 9.85995 30.1308C9.81995 30.1808 9.78495 30.2508 9.72995 30.2758C8.79495 30.6458 7.43495 31.5908 6.99495 31.2708C5.68495 30.3208 6.80495 29.2058 7.48495 28.3208C14.0499 19.7858 25.5649 14.1958 36.3949 14.9158L36.3899 14.9208Z" fill="#282828"/>
</g>
<g filter="url(#filter3_d_380_3550)">
<path d="M66.0551 18.6554C65.1501 18.1654 64.0751 17.8504 63.3651 17.1604C58.1501 12.0804 52.0101 8.77036 44.8601 7.48536C38.8401 6.40536 32.8601 6.56536 27.0701 8.84536C26.2901 9.15036 25.4801 9.47536 24.6651 9.55036C24.1751 9.59536 23.3201 9.28536 23.2101 8.95036C23.0501 8.46036 23.2351 7.59536 23.6051 7.26036C24.2551 6.67536 25.1151 6.22536 25.9601 5.96536C39.5751 1.77536 52.0651 3.66036 63.1551 12.9504C64.1001 13.7404 65.0651 14.5504 65.8051 15.5154C66.3251 16.2004 66.4651 17.1704 66.7751 18.0104C66.5351 18.2254 66.2951 18.4404 66.0601 18.6554H66.0551Z" fill="#282828"/>
</g>
<g filter="url(#filter4_d_380_3550)">
<path d="M48.6002 88.9543C40.0452 88.1543 35.0652 83.6843 33.5302 75.4843C32.7402 71.2643 32.8402 66.8743 32.5402 62.5643C32.5302 62.4393 32.5202 62.2693 32.5902 62.1843C33.2052 61.4143 33.8352 60.6593 34.4602 59.9043C34.8152 60.8493 35.5452 61.8293 35.4652 62.7343C35.0052 67.8593 35.4202 72.9043 37.2702 77.6693C39.2352 82.7243 43.0252 85.7093 48.6352 85.9743C48.8302 85.9843 49.0252 85.9743 49.2202 85.9993C50.3402 86.1193 51.7102 86.2343 51.5402 87.6693C51.4802 88.1843 50.0152 88.5443 49.1752 88.9443C49.0152 89.0193 48.7902 88.9543 48.5952 88.9593L48.6002 88.9543Z" fill="#282828"/>
</g>
</g>
<defs>
<filter id="filter0_d_380_3550" x="0.109314" y="21.1133" width="71.5758" height="83.2715" filterUnits="userSpaceOnUse" color-interpolation-filters="sRGB">
<feFlood flood-opacity="0" result="BackgroundImageFix"/>
<feColorMatrix in="SourceAlpha" type="matrix" values="0 0 0 0 0 0 0 0 0 0 0 0 0 0 0 0 0 0 127 0" result="hardAlpha"/>
<feOffset dx="2" dy="2"/>
<feGaussianBlur stdDeviation="3"/>
<feColorMatrix type="matrix" values="0 0 0 0 0 0 0 0 0 0 0 0 0 0 0 0 0 0 0.15 0"/>
<feBlend mode="normal" in2="BackgroundImageFix" result="effect1_dropShadow_380_3550"/>
<feBlend mode="normal" in="SourceGraphic" in2="effect1_dropShadow_380_3550" result="shape"/>
</filter>
<filter id="filter1_d_380_3550" x="8.01556" y="33.7852" width="53.8945" height="65.6807" filterUnits="userSpaceOnUse" color-interpolation-filters="sRGB">
<feFlood flood-opacity="0" result="BackgroundImageFix"/>
<feColorMatrix in="SourceAlpha" type="matrix" values="0 0 0 0 0 0 0 0 0 0 0 0 0 0 0 0 0 0 127 0" result="hardAlpha"/>
<feOffset dx="2" dy="2"/>
<feGaussianBlur stdDeviation="3"/>
<feColorMatrix type="matrix" values="0 0 0 0 0 0 0 0 0 0 0 0 0 0 0 0 0 0 0.15 0"/>
<feBlend mode="normal" in2="BackgroundImageFix" result="effect1_dropShadow_380_3550"/>
<feBlend mode="normal" in="SourceGraphic" in2="effect1_dropShadow_380_3550" result="shape"/>
</filter>
<filter id="filter2_d_380_3550" x="2.38861" y="10.8535" width="76.3864" height="42.2422" filterUnits="userSpaceOnUse" color-interpolation-filters="sRGB">
<feFlood flood-opacity="0" result="BackgroundImageFix"/>
<feColorMatrix in="SourceAlpha" type="matrix" values="0 0 0 0 0 0 0 0 0 0 0 0 0 0 0 0 0 0 127 0" result="hardAlpha"/>
<feOffset dx="2" dy="2"/>
<feGaussianBlur stdDeviation="3"/>
<feColorMatrix type="matrix" values="0 0 0 0 0 0 0 0 0 0 0 0 0 0 0 0 0 0 0.15 0"/>
<feBlend mode="normal" in2="BackgroundImageFix" result="effect1_dropShadow_380_3550"/>
<feBlend mode="normal" in="SourceGraphic" in2="effect1_dropShadow_380_3550" result="shape"/>
</filter>
<filter id="filter3_d_380_3550" x="19.1523" y="-0.150391" width="55.6228" height="26.8057" filterUnits="userSpaceOnUse" color-interpolation-filters="sRGB">
<feFlood flood-opacity="0" result="BackgroundImageFix"/>
<feColorMatrix in="SourceAlpha" type="matrix" values="0 0 0 0 0 0 0 0 0 0 0 0 0 0 0 0 0 0 127 0" result="hardAlpha"/>
<feOffset dx="2" dy="2"/>
<feGaussianBlur stdDeviation="3"/>
<feColorMatrix type="matrix" values="0 0 0 0 0 0 0 0 0 0 0 0 0 0 0 0 0 0 0.15 0"/>
<feBlend mode="normal" in2="BackgroundImageFix" result="effect1_dropShadow_380_3550"/>
<feBlend mode="normal" in="SourceGraphic" in2="effect1_dropShadow_380_3550" result="shape"/>
</filter>
<filter id="filter4_d_380_3550" x="28.5331" y="55.9043" width="31.0215" height="41.0762" filterUnits="userSpaceOnUse" color-interpolation-filters="sRGB">
<feFlood flood-opacity="0" result="BackgroundImageFix"/>
<feColorMatrix in="SourceAlpha" type="matrix" values="0 0 0 0 0 0 0 0 0 0 0 0 0 0 0 0 0 0 127 0" result="hardAlpha"/>
<feOffset dx="2" dy="2"/>
<feGaussianBlur stdDeviation="3"/>
<feColorMatrix type="matrix" values="0 0 0 0 0 0 0 0 0 0 0 0 0 0 0 0 0 0 0.15 0"/>
<feBlend mode="normal" in2="BackgroundImageFix" result="effect1_dropShadow_380_3550"/>
<feBlend mode="normal" in="SourceGraphic" in2="effect1_dropShadow_380_3550" result="shape"/>
</filter>
<clipPath id="clip0_380_3550">
<rect width="76" height="102" fill="white" transform="translate(0.499939)"/>
</clipPath>
</defs>
</svg>
