<svg width="115" height="101" viewBox="0 0 115 101" fill="none" xmlns="http://www.w3.org/2000/svg">
<g filter="url(#filter0_d_2083_469)">
<path d="M102.326 22.2945C102.884 22.7019 103.596 23.2029 104.287 23.7272C106.432 25.3503 106.88 27.8049 105.346 29.9991C102.771 33.6861 100.145 37.3364 97.5224 40.9933C96.7407 42.0854 95.6316 42.3359 94.7297 41.688C93.821 41.0368 93.7007 39.9313 94.4858 38.8226C96.9111 35.386 99.323 31.9395 101.818 28.553C102.557 27.5511 102.61 26.9132 101.461 26.2987C100.953 26.0282 100.502 25.6442 99.9143 25.2334C99.6103 25.6442 99.3197 26.0282 99.0424 26.419C87.9515 41.9886 76.8239 57.5315 65.7932 73.1445C62.0851 78.3945 57.3848 82.5791 52.3572 86.4631C50.8906 87.5953 49.0199 87.5485 47.5901 86.4898C46.1469 85.4211 45.5957 83.7046 46.1837 81.9312C48.325 75.4589 51.1579 69.374 55.1833 63.79C67.2196 47.105 79.0922 30.303 91.0182 13.5378C91.8434 12.3789 92.7854 11.4639 94.2519 11.1767C94.6027 11.1065 94.9602 10.7659 95.194 10.4586C95.9991 9.39661 96.7307 8.28116 97.5291 7.2158C98.7718 5.56266 100.77 5.16857 102.513 6.27067C103.569 6.93527 104.595 7.65998 105.567 8.44146C107.157 9.71722 107.434 11.6275 106.332 13.3508C105.884 14.0521 105.38 14.7167 104.899 15.3947C104.164 16.43 103.479 17.3651 103.546 18.8446C103.596 19.93 102.794 21.0554 102.323 22.2911L102.326 22.2945ZM70.3631 60.1631C70.7139 59.6989 70.9711 59.3716 71.2083 59.0377C76.3529 51.8139 81.4974 44.5902 86.642 37.3698C90.8679 31.4352 95.0804 25.4905 99.3364 19.5793C100.008 18.6475 99.9544 18.0731 98.9689 17.4753C98.0469 16.9142 97.2017 16.2296 96.3165 15.6017C94.8967 14.5965 94.8833 14.5965 93.8878 15.9958C84.5374 29.1174 75.1903 42.2391 65.8433 55.364C65.6094 55.6913 65.4023 56.0386 65.1317 56.4494C66.8889 57.6984 68.5792 58.9007 70.3598 60.1665L70.3631 60.1631ZM62.9904 59.5319C57.3547 65.9241 49.5076 80.3248 49.9319 83.434C57.8124 78.3477 63.0672 70.9002 68.1349 63.1922C66.3611 61.9298 64.6707 60.7275 62.9904 59.5319ZM101.033 14.346C101.765 13.3141 102.446 12.3556 103.181 11.3236C102.253 10.6657 101.428 10.0812 100.546 9.45673C99.8074 10.492 99.1393 11.4305 98.4043 12.4591C99.2896 13.0936 100.118 13.6881 101.037 14.346H101.033Z" fill="#292929"/>
<path d="M20.6649 78.8421C19.8264 79.2261 18.8275 79.4332 18.1794 80.0243C15.7274 82.2619 13.3389 84.573 11.0305 86.9575C9.90804 88.1164 9.01609 89.499 8.02392 90.7848C7.15536 91.9103 6.04293 92.1841 5.13094 91.4828C4.26906 90.8182 4.17886 89.6961 4.9873 88.6006C7.98718 84.5396 11.124 80.5954 15.1628 77.4929C16.7263 76.2939 18.42 75.302 20.4778 75.2419C23.3407 75.1584 25.0878 77.0554 24.56 79.8607C24.2527 81.4804 23.6213 83.0367 23.1135 84.6164C22.9532 85.1174 22.726 85.5949 22.4822 86.1961C23.9654 85.4146 25.2883 84.6665 26.6546 84.0052C29.8048 82.4757 32.8648 82.6259 35.7378 84.6965C38.584 86.7471 41.6774 87.9928 45.2418 87.9895C46.4244 87.9895 47.1326 88.8211 47.0925 89.8998C47.0524 90.9417 46.2774 91.7032 45.0948 91.6999C41.8745 91.6898 38.8212 90.9885 36.0351 89.3053C35.2166 88.811 34.3881 88.3201 33.6131 87.7624C31.9595 86.5634 30.1856 86.4098 28.4351 87.3449C26.4241 88.4203 24.5032 89.6693 22.5523 90.8549C21.8408 91.2857 21.1826 91.8134 20.4477 92.1908C19.5357 92.6584 18.6003 92.6784 17.7685 91.947C16.9868 91.2624 16.8164 90.3807 17.1338 89.4456C17.5748 88.1498 18.0926 86.8774 18.5937 85.6049C19.4288 83.4909 20.2807 81.3836 21.1259 79.2729C20.9722 79.1293 20.8185 78.9823 20.6649 78.8387V78.8421Z" fill="#292929"/>
</g>
<defs>
<filter id="filter0_d_2083_469" x="-4" y="-4" width="125" height="113" filterUnits="userSpaceOnUse" color-interpolation-filters="sRGB">
<feFlood flood-opacity="0" result="BackgroundImageFix"/>
<feColorMatrix in="SourceAlpha" type="matrix" values="0 0 0 0 0 0 0 0 0 0 0 0 0 0 0 0 0 0 127 0" result="hardAlpha"/>
<feOffset dx="2" dy="2"/>
<feGaussianBlur stdDeviation="3"/>
<feColorMatrix type="matrix" values="0 0 0 0 0 0 0 0 0 0 0 0 0 0 0 0 0 0 0.15 0"/>
<feBlend mode="normal" in2="BackgroundImageFix" result="effect1_dropShadow_2083_469"/>
<feBlend mode="normal" in="SourceGraphic" in2="effect1_dropShadow_2083_469" result="shape"/>
</filter>
</defs>
</svg>
