<svg width="112" height="112" viewBox="0 0 112 112" fill="none" xmlns="http://www.w3.org/2000/svg">
<g clip-path="url(#clip0_2080_461)" filter="url(#filter0_d_2080_461)">
<path d="M102 44.7736C101.688 46.633 101.456 48.5137 101.046 50.3516C99.2641 58.3363 95.2409 64.9999 89.0594 70.3486C83.6269 75.0489 77.3322 77.9449 70.2335 78.9327C61.1569 80.1957 52.6733 78.4403 44.9265 73.4709C43.2084 72.37 41.5973 71.0978 40.0015 69.951C39.1118 70.8103 38.1855 71.7064 37.2195 72.636C38.4056 74.0366 39.0446 75.6146 38.8061 77.4954C38.6227 78.9418 37.9532 80.1192 36.9474 81.1253C30.6375 87.4434 24.3214 93.7522 18.0176 100.076C17.0271 101.07 15.8164 101.621 14.5019 102H12.796C9.7205 101.245 7.91679 98.8379 6.07333 96.5993C4.50196 94.6911 4.72514 91.7614 6.26288 89.8134C6.59305 89.3944 6.96296 88.9999 7.34205 88.6207C13.2515 82.7003 19.2282 76.844 25.0521 70.8409C27.5773 68.2385 30.7169 66.9235 34.4069 69.7522C35.2965 68.8256 36.1892 67.899 37.0727 66.9816C35.8774 65.3241 34.5384 63.6421 33.3919 61.844C30.3593 57.0917 28.5617 51.8868 27.9472 46.2752C27.2624 40.0366 28.0542 33.9969 30.4173 28.1865C32.8814 22.1314 36.6753 17.0489 41.8113 12.9938C46.3664 9.39749 51.4963 6.99077 57.1734 5.80728C63.5048 4.48618 69.7872 4.77976 75.9534 6.73083C82.8931 8.9296 88.7201 12.8532 93.373 18.4495C97.6102 23.5473 100.331 29.3761 101.422 35.9388C101.649 37.2996 101.811 38.6727 102 40.0366V44.7736ZM98.0229 42.2079C98.0566 23.899 83.1255 8.94489 64.8102 8.94795C46.5071 8.94795 31.5179 23.948 31.5699 42.2048C31.6219 60.4954 46.4368 75.4281 64.7582 75.4158C83.2172 75.4036 97.8823 60.7033 98.0229 42.2079ZM13.7223 98.2721C14.3612 97.8348 15.0155 97.5168 15.5016 97.0336C20.9188 91.6513 26.3085 86.2446 31.7044 80.844C32.5512 79.9969 33.4194 79.1681 34.2418 78.2935C35.214 77.2568 35.2018 76.2385 34.2174 75.2048C33.4347 74.3822 32.6338 73.5779 31.8083 72.7951C30.7842 71.8226 29.7509 71.8226 28.7115 72.7767C28.2254 73.2232 27.7699 73.7094 27.3021 74.1773C21.5027 79.9785 15.7033 85.7798 9.90699 91.584C8.63216 92.8593 8.63216 93.8103 9.87336 95.0795C10.601 95.8226 11.3102 96.5902 12.0898 97.2782C12.5178 97.6544 13.0742 97.8837 13.7223 98.2691V98.2721Z" fill="#292929"/>
<path d="M85.5435 62.8261C84.6263 61.9118 83.7581 61.0463 82.8257 60.1167C87.6621 55.1167 90.2026 49.0983 90.1903 42.1411C90.1781 35.2176 87.6498 29.2298 82.8654 24.3001C83.7979 23.343 84.6722 22.4469 85.5435 21.5479C96.8213 32.5173 97.0414 51.5417 85.5435 62.8261Z" fill="#292929"/>
</g>
<defs>
<filter id="filter0_d_2080_461" x="0.354838" y="0.354838" width="110.935" height="110.935" filterUnits="userSpaceOnUse" color-interpolation-filters="sRGB">
<feFlood flood-opacity="0" result="BackgroundImageFix"/>
<feColorMatrix in="SourceAlpha" type="matrix" values="0 0 0 0 0 0 0 0 0 0 0 0 0 0 0 0 0 0 127 0" result="hardAlpha"/>
<feOffset dx="2.32258" dy="2.32258"/>
<feGaussianBlur stdDeviation="3.48387"/>
<feColorMatrix type="matrix" values="0 0 0 0 0 0 0 0 0 0 0 0 0 0 0 0 0 0 0.15 0"/>
<feBlend mode="normal" in2="BackgroundImageFix" result="effect1_dropShadow_2080_461"/>
<feBlend mode="normal" in="SourceGraphic" in2="effect1_dropShadow_2080_461" result="shape"/>
</filter>
<clipPath id="clip0_2080_461">
<rect width="97" height="97" fill="white" transform="translate(5 5)"/>
</clipPath>
</defs>
</svg>
