<svg width="110" height="100" viewBox="0 0 110 100" fill="none" xmlns="http://www.w3.org/2000/svg">
<g filter="url(#filter0_d_2578_570)">
<rect x="73.5" y="5.5" width="27" height="27" rx="3.5" stroke="#292929" stroke-width="3"/>
<rect x="39.5" y="5.5" width="27" height="27" rx="3.5" stroke="#292929" stroke-width="3"/>
<path d="M33.0542 56.2763C33.9185 70.4228 41.8862 83.6536 46.363 89.2829C46.7307 89.7453 47.2896 90 47.8804 90H71.6846C72.0914 90 72.4915 89.8803 72.8121 89.6299C79.0091 84.7902 80.9797 72.7337 81.1856 67.175V52.7132C81.1856 50.3346 80.9277 47.7526 79.2027 46.1149C76.2831 43.3433 72.8193 45.7017 72.3093 49.1055V45.3117C72.3093 44.6864 72.1308 44.058 71.6888 43.6156C69.023 40.9475 64.6045 41.9053 63.433 44.3503C59.8825 38.2637 56.0361 41.8142 54.5567 44.3503V29.2874C54.5567 28.3472 54.4338 27.387 53.9391 26.5874C51.5903 22.7903 46.3801 23.1385 45.1086 27.6303C45.0649 27.7844 45.0464 27.947 45.0464 28.1071V60.3421C45.0464 61.5087 43.3886 61.7307 43.0816 60.6052L41.4177 54.504C41.3038 54.0865 41.0588 53.7102 40.7023 53.4649C37.1828 51.0437 34.7656 52.5228 33.5784 54.1397C33.131 54.7489 33.0082 55.5219 33.0542 56.2763Z" fill="#F6F6F6"/>
<path d="M54.5567 51.3245V44.3503M54.5567 44.3503V29.2874C54.5567 28.3472 54.4338 27.387 53.9391 26.5874C51.5903 22.7903 46.3801 23.1385 45.1086 27.6303C45.0649 27.7844 45.0464 27.947 45.0464 28.1071V60.3421C45.0464 61.5087 43.3886 61.7307 43.0816 60.6052L41.4177 54.504C41.3038 54.0865 41.0588 53.7102 40.7023 53.4649C37.1828 51.0437 34.7656 52.5228 33.5784 54.1397C33.131 54.7489 33.0082 55.5219 33.0542 56.2763C33.9185 70.4228 41.8862 83.6536 46.363 89.2829C46.7307 89.7453 47.2896 90 47.8804 90H71.6846C72.0914 90 72.4915 89.8803 72.8121 89.6299C79.0091 84.7902 80.9797 72.7337 81.1856 67.175V52.7132C81.1856 50.3346 80.9277 47.7526 79.2027 46.1149C76.2831 43.3433 72.8193 45.7017 72.3093 49.1055M54.5567 44.3503C56.0361 41.8142 59.8825 38.2637 63.433 44.3503M63.433 44.3503V52.5925M63.433 44.3503C64.6045 41.9053 69.023 40.9475 71.6888 43.6156C72.1308 44.058 72.3093 44.6864 72.3093 45.3117V49.1055M72.3093 53.8608V49.1055" stroke="#292929" stroke-width="3"/>
<rect x="5.5" y="5.5" width="27" height="27" rx="3.5" stroke="#292929" stroke-width="3"/>
</g>
<defs>
<filter id="filter0_d_2578_570" x="0" y="0" width="110" height="99.5" filterUnits="userSpaceOnUse" color-interpolation-filters="sRGB">
<feFlood flood-opacity="0" result="BackgroundImageFix"/>
<feColorMatrix in="SourceAlpha" type="matrix" values="0 0 0 0 0 0 0 0 0 0 0 0 0 0 0 0 0 0 127 0" result="hardAlpha"/>
<feOffset dx="2" dy="2"/>
<feGaussianBlur stdDeviation="3"/>
<feColorMatrix type="matrix" values="0 0 0 0 0 0 0 0 0 0 0 0 0 0 0 0 0 0 0.15 0"/>
<feBlend mode="normal" in2="BackgroundImageFix" result="effect1_dropShadow_2578_570"/>
<feBlend mode="normal" in="SourceGraphic" in2="effect1_dropShadow_2578_570" result="shape"/>
</filter>
</defs>
</svg>
